<mxfile host="app.diagrams.net" agent="Mozilla/5.0 (Macintosh; Intel Mac OS X 10_15_7) AppleWebKit/537.36 (KHTML, like Gecko) Chrome/132.0.0.0 Safari/537.36" version="26.0.6">
  <diagram name="Page-1" id="YPKPpMM0ROmh5dz6Bpro">
    <mxGraphModel dx="1907" dy="1865" grid="1" gridSize="10" guides="1" tooltips="1" connect="1" arrows="1" fold="1" page="1" pageScale="1" pageWidth="827" pageHeight="1169" math="0" shadow="0">
      <root>
        <mxCell id="0" />
        <mxCell id="1" parent="0" />
        <mxCell id="i0-r0BhkWRjA8PmNq9u2-18" value="Environnements MITSUBISHI" style="rounded=1;whiteSpace=wrap;html=1;strokeColor=#07838f;fillColor=#dafdf5;arcSize=24;absoluteArcSize=1;imageWidth=64;imageHeight=64;strokeWidth=1.5;verticalAlign=top;fontSize=15;fontStyle=1" parent="1" vertex="1">
          <mxGeometry x="479" y="30" width="340" height="640" as="geometry" />
        </mxCell>
        <mxCell id="i0-r0BhkWRjA8PmNq9u2-19" value="" style="rounded=1;whiteSpace=wrap;html=1;strokeColor=#07838f;fillColor=#FFFFFF;arcSize=24;absoluteArcSize=1;imageWidth=64;imageHeight=64;strokeWidth=1.5;" parent="1" vertex="1">
          <mxGeometry x="479" y="70" width="340" height="600" as="geometry" />
        </mxCell>
        <mxCell id="i0-r0BhkWRjA8PmNq9u2-21" value="COFACE" style="shape=image;verticalLabelPosition=bottom;verticalAlign=top;imageAspect=0;aspect=fixed;image=data:image/svg+xml,PHN2ZyB4bWxucz0iaHR0cDovL3d3dy53My5vcmcvMjAwMC9zdmciIGZpbGw9Im5vbmUiIHZpZXdCb3g9IjAgMCAyOCAyOCIgaGVpZ2h0PSIyOCIgd2lkdGg9IjI4Ij4mI3hhOzxnIGNsaXAtcGF0aD0idXJsKCNjbGlwMF84NzBfMjg0KSI+JiN4YTs8cGF0aCBmaWxsPSJ1cmwoI3BhaW50MF9saW5lYXJfODcwXzI4NCkiIGQ9Ik0yMy43ODkyIDEuNzIzM0MyNC45OTE0IDEuNzIzMyAyNS45OTQxIDIuMTI1NzkgMjYuNzk3MyAyLjkyNzI2QzI3LjU5ODggMy43Mjg3MyAyNy45OTk1IDQuNzI5NyAyNy45OTk1IDUuOTMzNjVWMjIuMDY2M0MyOC4wMDggMjIuNjIyNSAyNy45MDYgMjMuMTc0OCAyNy42OTkzIDIzLjY5MTJDMjcuNDkyNiAyNC4yMDc2IDI3LjE4NTQgMjQuNjc3OCAyNi43OTU2IDI1LjA3NDVDMjUuOTk0MSAyNS44NzU5IDI0Ljk5MzEgMjYuMjc2NyAyMy43ODkyIDI2LjI3NjdINC4yMTA4N0MzLjAwODY2IDI2LjI3NjcgMi4wMDU5NSAyNS44NzU5IDEuMjAyNzMgMjUuMDc0NUMwLjgxMzE2NCAyNC42Nzc2IDAuNTA2MjkyIDI0LjIwNzQgMC4yOTk5MTggMjMuNjkxQzAuMDkzNTQzNCAyMy4xNzQ2IC0wLjAwODIyNDU4IDIyLjYyMjQgMC4wMDA1MTkyMzEgMjIuMDY2M1Y1LjkzMzY1QzAuMDAwNTE5MjMxIDQuNzMxNDUgMC40MDMwMDUgMy43Mjg3MyAxLjIwNDQ4IDIuOTI1NTFDMi4wMDQyIDIuMTI1NzkgMy4wMDY5MSAxLjcyMzMgNC4yMDkxMiAxLjcyMzNIMjMuNzg5MlpNMi43ODk5MiA3LjMwMjFIMjUuMjEwMVY1LjkzMzY1QzI1LjIxMDEgNC45ODY5NCAyNC43Mzc2IDQuNTEyNyAyMy43ODkyIDQuNTEyN0g0LjIxMDg3QzMuODI4NiA0LjUwNTcyIDMuNDU3NjUgNC42NDI0OSAzLjE3MTQgNC44OTU5NEMyLjkxNzY2IDUuMTQ5NjggMi43ODk5MiA1LjQ5NjE3IDIuNzg5OTIgNS45MzM2NVY3LjMwMDM1VjcuMzAyMVpNMjUuMjEwMSAxMC4xNDU4SDIuNzg5OTJWMjIuMDY2M0MyLjc4OTkyIDIyLjQ2ODggMi45MTc2NiAyMi43OTYgMy4xNzE0IDIzLjA1MTVDMy40NTc5MSAyMy4zMDQ0IDMuODI4ODQgMjMuNDQwNSA0LjIxMDg3IDIzLjQzM0gyMy43ODkyQzI0LjczNTkgMjMuNDMzIDI1LjIxMDEgMjIuOTc4IDI1LjIxMDEgMjIuMDY2M1YxMC4xNDRWMTAuMTQ1OFoiLz4mI3hhOzwvZz4mI3hhOzxkZWZzPiYjeGE7PGxpbmVhckdyYWRpZW50IGdyYWRpZW50VW5pdHM9InVzZXJTcGFjZU9uVXNlIiB5Mj0iMjYuMjc2NyIgeDI9IjE0IiB5MT0iMS43MjMzIiB4MT0iMTQiIGlkPSJwYWludDBfbGluZWFyXzg3MF8yODQiPiYjeGE7PHN0b3Agc3RvcC1jb2xvcj0iIzVCNzM4QiIvPiYjeGE7PHN0b3Agc3RvcC1jb2xvcj0iIzIyMzU0OCIgb2Zmc2V0PSIxIi8+JiN4YTs8L2xpbmVhckdyYWRpZW50PiYjeGE7PGNsaXBQYXRoIGlkPSJjbGlwMF84NzBfMjg0Ij4mI3hhOzxyZWN0IGZpbGw9IndoaXRlIiBoZWlnaHQ9IjI4IiB3aWR0aD0iMjgiLz4mI3hhOzwvY2xpcFBhdGg+JiN4YTs8L2RlZnM+JiN4YTs8L3N2Zz4=" parent="1" vertex="1">
          <mxGeometry x="-131" y="469" width="70" height="70" as="geometry" />
        </mxCell>
        <mxCell id="i0-r0BhkWRjA8PmNq9u2-30" value="S/4 HANA" style="shape=image;verticalLabelPosition=bottom;verticalAlign=top;imageAspect=0;aspect=fixed;image=data:image/svg+xml,PHN2ZyB4bWxucz0iaHR0cDovL3d3dy53My5vcmcvMjAwMC9zdmciIGZpbGw9Im5vbmUiIHZpZXdCb3g9IjAgMCAyOCAyOCIgaGVpZ2h0PSIyOCIgd2lkdGg9IjI4Ij4mI3hhOzxnIGNsaXAtcGF0aD0idXJsKCNjbGlwMF84NzBfMjE4KSI+JiN4YTs8cGF0aCBmaWxsPSJ1cmwoI3BhaW50MF9saW5lYXJfODcwXzIxOCkiIGQ9Ik0yMy43ODkyIDEuNzIzM0MyNC45OTE0IDEuNzIzMyAyNS45OTQxIDIuMTI1NzkgMjYuNzk3MyAyLjkyNzI2QzI3LjU5ODggMy43Mjg3MyAyNy45OTk1IDQuNzI5NyAyNy45OTk1IDUuOTMzNjVWMjIuMDY2M0MyOC4wMDggMjIuNjIyNSAyNy45MDYgMjMuMTc0OCAyNy42OTkzIDIzLjY5MTJDMjcuNDkyNiAyNC4yMDc2IDI3LjE4NTQgMjQuNjc3OCAyNi43OTU2IDI1LjA3NDVDMjUuOTk0MSAyNS44NzU5IDI0Ljk5MzEgMjYuMjc2NyAyMy43ODkyIDI2LjI3NjdINC4yMTA4N0MzLjAwODY2IDI2LjI3NjcgMi4wMDU5NSAyNS44NzU5IDEuMjAyNzMgMjUuMDc0NUMwLjgxMzE2NCAyNC42Nzc2IDAuNTA2MjkyIDI0LjIwNzQgMC4yOTk5MTggMjMuNjkxQzAuMDkzNTQzNCAyMy4xNzQ2IC0wLjAwODIyNDU4IDIyLjYyMjQgMC4wMDA1MTkyMzEgMjIuMDY2M1Y1LjkzMzY1QzAuMDAwNTE5MjMxIDQuNzMxNDUgMC40MDMwMDUgMy43Mjg3MyAxLjIwNDQ4IDIuOTI1NTFDMi4wMDQyIDIuMTI1NzkgMy4wMDY5MSAxLjcyMzMgNC4yMDkxMiAxLjcyMzNIMjMuNzg5MlpNMi43ODk5MiA3LjMwMjFIMjUuMjEwMVY1LjkzMzY1QzI1LjIxMDEgNC45ODY5NCAyNC43Mzc2IDQuNTEyNyAyMy43ODkyIDQuNTEyN0g0LjIxMDg3QzMuODI4NiA0LjUwNTcyIDMuNDU3NjUgNC42NDI0OSAzLjE3MTQgNC44OTU5NEMyLjkxNzY2IDUuMTQ5NjggMi43ODk5MiA1LjQ5NjE3IDIuNzg5OTIgNS45MzM2NVY3LjMwMDM1VjcuMzAyMVpNMjUuMjEwMSAxMC4xNDU4SDIuNzg5OTJWMjIuMDY2M0MyLjc4OTkyIDIyLjQ2ODggMi45MTc2NiAyMi43OTYgMy4xNzE0IDIzLjA1MTVDMy40NTc5MSAyMy4zMDQ0IDMuODI4ODQgMjMuNDQwNSA0LjIxMDg3IDIzLjQzM0gyMy43ODkyQzI0LjczNTkgMjMuNDMzIDI1LjIxMDEgMjIuOTc4IDI1LjIxMDEgMjIuMDY2M1YxMC4xNDRWMTAuMTQ1OFoiLz4mI3hhOzwvZz4mI3hhOzxkZWZzPiYjeGE7PGxpbmVhckdyYWRpZW50IGdyYWRpZW50VW5pdHM9InVzZXJTcGFjZU9uVXNlIiB5Mj0iMTkuMzgyNiIgeDI9IjI2LjU3ODMiIHkxPSI0LjAzMjk5IiB4MT0iMy42MTg3NCIgaWQ9InBhaW50MF9saW5lYXJfODcwXzIxOCI+JiN4YTs8c3RvcCBzdG9wLWNvbG9yPSIjMjM5NUZGIi8+JiN4YTs8c3RvcCBzdG9wLWNvbG9yPSIjMDA1N0QyIiBvZmZzZXQ9IjEiLz4mI3hhOzwvbGluZWFyR3JhZGllbnQ+JiN4YTs8Y2xpcFBhdGggaWQ9ImNsaXAwXzg3MF8yMTgiPiYjeGE7PHJlY3QgZmlsbD0id2hpdGUiIGhlaWdodD0iMjgiIHdpZHRoPSIyOCIvPiYjeGE7PC9jbGlwUGF0aD4mI3hhOzwvZGVmcz4mI3hhOzwvc3ZnPg==" parent="1" vertex="1">
          <mxGeometry x="700" y="330.85" width="100" height="100" as="geometry" />
        </mxCell>
        <mxCell id="i0-r0BhkWRjA8PmNq9u2-32" value="SP2" style="rounded=1;whiteSpace=wrap;html=1;fillColor=#dae8fc;strokeColor=#6c8ebf;" parent="1" vertex="1">
          <mxGeometry x="713.5" y="380" width="73" height="20" as="geometry" />
        </mxCell>
        <mxCell id="i0-r0BhkWRjA8PmNq9u2-2" value="" style="group;arcSize=24;" parent="1" vertex="1" connectable="0">
          <mxGeometry x="29" y="30" width="551" height="640" as="geometry" />
        </mxCell>
        <mxCell id="i0-r0BhkWRjA8PmNq9u2-3" value="&lt;p style=&quot;line-height: 100%; font-size: 15px;&quot;&gt;&lt;/p&gt;&lt;h1 style=&quot;font-size: 15px;&quot;&gt;&lt;b style=&quot;font-size: 15px;&quot;&gt;GLOBAL ACCOUNT&lt;/b&gt;&lt;/h1&gt;&lt;p style=&quot;font-size: 15px;&quot;&gt;&lt;/p&gt;" style="rounded=1;whiteSpace=wrap;html=1;strokeColor=#0070F2;fillColor=#EBF8FF;arcSize=24;absoluteArcSize=1;imageWidth=64;imageHeight=64;strokeWidth=1.5;verticalAlign=top;fontSize=15;" parent="i0-r0BhkWRjA8PmNq9u2-2" vertex="1">
          <mxGeometry width="340" height="640" as="geometry" />
        </mxCell>
        <mxCell id="i0-r0BhkWRjA8PmNq9u2-4" value="" style="shape=image;verticalLabelPosition=bottom;labelBackgroundColor=default;verticalAlign=top;aspect=fixed;imageAspect=0;image=data:image/svg+xml,PHN2ZyB4bWxuczp4bGluaz0iaHR0cDovL3d3dy53My5vcmcvMTk5OS94bGluayIgeG1sbnM9Imh0dHA6Ly93d3cudzMub3JnLzIwMDAvc3ZnIiB2aWV3Qm94PSIwIDAgMTQ0Ljc0NyAzOS44MzIiIGlkPSJhIj48ZGVmcz48bGluZWFyR3JhZGllbnQgZ3JhZGllbnRVbml0cz0idXNlclNwYWNlT25Vc2UiIHkyPSIzOS44MzIiIHgyPSI0MC4yNTgiIHkxPSIwIiB4MT0iNDAuMjU4IiBpZD0iYiI+PHN0b3Agc3RvcC1jb2xvcj0iIzAwYjhmMSIgb2Zmc2V0PSIwIi8+PHN0b3Agc3RvcC1jb2xvcj0iIzAwYjVlZiIgb2Zmc2V0PSIuMDE2Ii8+PHN0b3Agc3RvcC1jb2xvcj0iIzBkOTBkOCIgb2Zmc2V0PSIuMzA4Ii8+PHN0b3Agc3RvcC1jb2xvcj0iIzE2NzVjOCIgb2Zmc2V0PSIuNTc4Ii8+PHN0b3Agc3RvcC1jb2xvcj0iIzFjNjRiZSIgb2Zmc2V0PSIuODE3Ii8+PHN0b3Agc3RvcC1jb2xvcj0iIzFlNWZiYiIgb2Zmc2V0PSIxIi8+PC9saW5lYXJHcmFkaWVudD48L2RlZnM+PHBvbHlsaW5lIGZpbGwtcnVsZT0iZXZlbm9kZCIgZmlsbD0idXJsKCNiKSIgcG9pbnRzPSIwIDM5LjgzMiA0MC42OTIgMzkuODMyIDgwLjUxNyAwIDAgMCAwIDM5LjgzMiIvPjxwYXRoIGZpbGwtcnVsZT0iZXZlbm9kZCIgZmlsbD0iI2ZmZiIgZD0ibTQ3Ljc4Miw3LjQ4OWwtNy45MjUtLjAwNXYxOC44NDVsLTYuOTI0LTE4Ljg0NWgtNi44NjVsLTUuOTEyLDE1Ljc1OWMtLjYzLTMuOTczLTQuNzQtNS4zNDUtNy45NzQtNi4zNzQtMi4xMzUtLjY4Ni00LjQwMS0xLjY5NC00LjM4LTIuODA5LjAxNy0uOTE1LDEuMjE1LTEuNzY1LDMuNTg5LTEuNjM3LDEuNTk1LjA4NCwzLjAwMS4yMTMsNS44LDEuNTYzbDIuNzUzLTQuNzk1Yy0yLjU1NS0xLjMtNi4wODYtMi4xMjEtOC45NzgtMi4xMjRoLS4wMTdjLTMuMzc0LDAtNi4xODUsMS4wOTMtNy45MjgsMi44OTQtMS4yMTQsMS4yNTgtMS44NjksMi44NTYtMS44OTYsNC42MjMtLjA0NCwyLjQzMi44NDgsNC4xNTcsMi43MjEsNS41MzMsMS41ODMsMS4xNiwzLjYwNiwxLjkxMiw1LjM5LDIuNDY1LDIuMjAxLjY4MSwzLjk5NiwxLjI3NCwzLjk3NSwyLjUzOS0uMDE2LjQ1OS0uMTkxLjg4OC0uNTIxLDEuMjM2LS41NDguNTY2LTEuMzkxLjc3OS0yLjU1NS43OTktMi4yNDQuMDQ4LTMuOTEtLjMwMy02LjU2Mi0xLjg3bC0yLjQ0OCw0Ljg2MWMyLjY0NCwxLjUwNiw1Ljc3NiwyLjM4OCw4Ljk3MiwyLjM4OGwuNDExLS4wMDZjMi43ODItLjA1LDUuMDI2LS44NDIsNi44Mi0yLjI4Ni4xMDMtLjA4MS4xOTYtLjE2Ni4yOTEtLjI1bC0uNzk1LDIuMTIzaDcuMmwxLjIwOC0zLjY3NGMxLjI2NS40MzMsMi43MDQuNjcxLDQuMjMyLjY3MSwxLjQ4NywwLDIuODg5LS4yMjksNC4xMzEtLjYzNWwxLjE2NCwzLjYzN2gxMS43NDJ2LTcuNjA3aDIuNTYxYzYuMTg4LDAsOS44NTEtMy4xNTQsOS44NTEtOC40MzYsMC01Ljg4NS0zLjU1Ny04LjU4NS0xMS4xMzItOC41ODVabS0xOC4zMTcsMTYuMTI0Yy0uOTI1LDAtMS43OTItLjE2LTIuNTM5LS40NDNsMi41MTItNy45MjZoLjA0OGwyLjQ2OCw3Ljk0OGMtLjc0Mi4yNjMtMS41ODkuNDIxLTIuNDg4LjQyMVptMTguNzgzLTQuNTUzaC0xLjc0NnYtNi4zODZoMS43NDZjMi4zMjgsMCw0LjE4NS43NzMsNC4xODUsMy4xNTEsMCwyLjQ2MS0xLjg1NywzLjIzNi00LjE4NSwzLjIzNiIvPjxwYXRoIGZpbGw9IiMwMDJhODYiIGQ9Im04MC4yMTcsNy40MDFoMTAuMDYzYzUuNTk1LDAsOC42NzQsMS45MTcsOC42NzQsNi4xNTgsMCwyLjkwMy0xLjUxMyw1LjAxNC00LjMxMSw1LjcsMy4yOS40NTgsNS4yNzgsMi41ODYsNS4yNzgsNS44OTQsMCw1LjAxNC00LjA2NCw3LjAzNy05LjE4NCw3LjAzN2gtMTAuNTIxVjcuNDAxWm0xMy45NjksNi44MjZjMC0yLjE2NC0xLjQ5Ni0yLjk3My00LjI0LTIuOTczaC01LjA0OXY2LjI5OGg0Ljg5MWMzLjIwMiwwLDQuMzk4LTEuMTYxLDQuMzk4LTMuMzI1Wm0xLjAyMSwxMC41MjFjMC0yLjM1Ny0xLjc3Ny0zLjQ2Ni00LjgzOS0zLjQ2NmgtNS40NzF2Ny4wNTVoNS41MDZjMi44MTUsMCw0LjgwNC0uNzc0LDQuODA0LTMuNTg5WiIvPjxwYXRoIGZpbGw9IiMwMDJhODYiIGQ9Im0xMDkuMDUxLDExLjVoLTcuNTgzdi00LjA5OWgxOS44NDZ2NC4wOTloLTcuNTY1djIwLjY5aC00LjY5N1YxMS41WiIvPjxwYXRoIGZpbGw9IiMwMDJhODYiIGQ9Im0xMjUuMTQ4LDcuNDAxaDEwLjUwNGM2LjE5MiwwLDkuMDk2LDMuMTg1LDkuMDk2LDcuODk5LDAsNC4zOTgtMi44MzMsOC4xNDYtOC44NSw4LjE0NmgtNi4wN3Y4Ljc0NGgtNC42OFY3LjQwMVptMTQuOTAyLDcuOTUyYzAtMi41NTEtMS42ODktMy45MjMtNC45NDQtMy45MjNoLTUuMjc4djguMDRoNS40MTljMy4yNzIsMCw0LjgwNC0xLjU4Myw0LjgwNC00LjExN1oiLz48L3N2Zz4=;strokeWidth=1.5;" parent="i0-r0BhkWRjA8PmNq9u2-2" vertex="1">
          <mxGeometry x="16.717504332755635" y="18.823529411764707" width="70.89897033336732" height="19.555265572433477" as="geometry" />
        </mxCell>
        <mxCell id="i0-r0BhkWRjA8PmNq9u2-13" value="" style="rounded=1;whiteSpace=wrap;html=1;strokeColor=#0070F2;strokeWidth=1.5;arcSize=24;fillColor=#FFFFFF;perimeterSpacing=0;absoluteArcSize=1;" parent="i0-r0BhkWRjA8PmNq9u2-2" vertex="1">
          <mxGeometry x="16.72" y="372.71" width="313.28" height="203.17" as="geometry" />
        </mxCell>
        <mxCell id="i0-r0BhkWRjA8PmNq9u2-14" value="&lt;font face=&quot;arial&quot; style=&quot;font-size: 16px;&quot;&gt;&lt;b style=&quot;font-size: 16px;&quot;&gt;SubAccount&lt;/b&gt;&lt;/font&gt;&lt;div&gt;&lt;font face=&quot;arial&quot; style=&quot;font-size: 16px;&quot;&gt;&lt;b style=&quot;font-size: 16px;&quot;&gt;Integration PRD&lt;/b&gt;&lt;/font&gt;&lt;/div&gt;" style="text;html=1;align=left;verticalAlign=middle;resizable=0;points=[];autosize=1;strokeColor=none;fillColor=none;fontSize=12;fontColor=#1d2d3e;fontFamily=Helvetica;" parent="i0-r0BhkWRjA8PmNq9u2-2" vertex="1">
          <mxGeometry x="27.036395147313687" y="372.1270588235294" width="140" height="50" as="geometry" />
        </mxCell>
        <mxCell id="i0-r0BhkWRjA8PmNq9u2-51" value="SAP Connectivity&#xa;Service" style="shape=image;verticalLabelPosition=bottom;verticalAlign=top;imageAspect=0;aspect=fixed;image=data:image/svg+xml,PHN2ZyB4bWxucz0iaHR0cDovL3d3dy53My5vcmcvMjAwMC9zdmciIGZpbGw9Im5vbmUiIHZpZXdCb3g9IjAgMCAxNiAxNiIgaGVpZ2h0PSIxNiIgd2lkdGg9IjE2Ij4mI3hhOzxjaXJjbGUgc3Ryb2tlLXdpZHRoPSIwLjI4NTcwOCIgc3Ryb2tlPSIjRDVEQUREIiBmaWxsPSJ1cmwoI3BhaW50MF9saW5lYXJfMzUxNF80MDIwMikiIHI9IjcuODU2OTYiIGN5PSI3Ljk5OTA4IiBjeD0iNy45OTkzMyIvPiYjeGE7PGcgY2xpcC1wYXRoPSJ1cmwoI2NsaXAwXzM1MTRfNDAyMDIpIj4mI3hhOzxwYXRoIGZpbGw9InVybCgjcGFpbnQxX2xpbmVhcl8zNTE0XzQwMjAyKSIgZD0iTTguNTgyOTIgNC4xMTQ3NEM4LjU4MjkyIDMuODM4NiA4LjgwNjc4IDMuNjE0NzUgOS4wODI5MiAzLjYxNDc1SDEwLjYyNjRDMTEuNTkyOSAzLjYxNDc1IDEyLjM3NjQgNC4zOTgyNSAxMi4zNzY0IDUuMzY0NzRWNi42OTM5NUMxMi4zNzY0IDYuOTcwMSAxMi4xNTI1IDcuMTkzOTUgMTEuODc2NCA3LjE5Mzk1QzExLjYwMDIgNy4xOTM5NSAxMS4zNzY0IDYuOTcwMSAxMS4zNzY0IDYuNjkzOTVWNS4zNjQ3NEMxMS4zNzY0IDQuOTUwNTMgMTEuMDQwNiA0LjYxNDc0IDEwLjYyNjQgNC42MTQ3NEg5LjA4MjkyQzguODA2NzggNC42MTQ3NCA4LjU4MjkyIDQuMzkwODkgOC41ODI5MiA0LjExNDc0Wk00LjEyMTU4IDguNTMzMjRDNC4zOTc3MiA4LjUzMzI0IDQuNjIxNTggOC43NTcxIDQuNjIxNTggOS4wMzMyNFYxMC42MjgxQzQuNjIxNTggMTEuMDQyMyA0Ljk1NzM2IDExLjM3ODEgNS4zNzE1OCAxMS4zNzgxSDcuMDY5MjVDNy4zNDUzOSAxMS4zNzgxIDcuNTY5MjUgMTEuNjAxOSA3LjU2OTI1IDExLjg3ODFDNy41NjkyNSAxMi4xNTQyIDcuMzQ1MzkgMTIuMzc4MSA3LjA2OTI1IDEyLjM3ODFINS4zNzE1OEM0LjQwNTA4IDEyLjM3ODEgMy42MjE1OCAxMS41OTQ2IDMuNjIxNTggMTAuNjI4MVY5LjAzMzI0QzMuNjIxNTggOC43NTcxIDMuODQ1NDQgOC41MzMyNCA0LjEyMTU4IDguNTMzMjRaIiBjbGlwLXJ1bGU9ImV2ZW5vZGQiIGZpbGwtcnVsZT0iZXZlbm9kZCIvPiYjeGE7PHBhdGggZmlsbD0idXJsKCNwYWludDJfbGluZWFyXzM1MTRfNDAyMDIpIiBkPSJNMTIuODQzMiAxMS45MzI4QzEyLjk0NzQgMTIuMDM3IDEyLjk5OTUgMTIuMTQ3NyAxMi45OTk1IDEyLjI2NDlDMTIuOTk5NSAxMi4zOTUxIDEyLjk0NzQgMTIuNTEyMyAxMi44NDMyIDEyLjYxNjRDMTIuNzM5MSAxMi43MjA2IDEyLjYyMTkgMTIuNzcyNyAxMi40OTE3IDEyLjc3MjdDMTIuMzc0NSAxMi43NzI3IDEyLjI2MzggMTIuNzIwNiAxMi4xNTk2IDEyLjYxNjRMMTAuNzcyOSAxMS4yMjk3QzEwLjM2OTMgMTEuNTgxMyA5LjkxMzU2IDExLjc1MDYgOS40MDU3NSAxMS43Mzc1QzguODk3OTQgMTEuNzExNSA4LjQ1NTI0IDExLjUwOTcgOC4wNzc2MyAxMS4xMzIxTDcuNjI4NDIgMTAuNjgyOEM3LjUyNDI1IDEwLjU3ODcgNy40NzIxNyAxMC40NjggNy40NzIxNyAxMC4zNTA4QzcuNDcyMTcgMTAuMjIwNiA3LjUyNDI1IDEwLjEwMzQgNy42Mjg0MiA5Ljk5OTI2TDEwLjE2NzUgNy40NjAyQzEwLjI3MTYgNy4zNTYwNCAxMC4zODg4IDcuMzAzOTYgMTAuNTE5IDcuMzAzOTZDMTAuNjQ5MiA3LjMwMzk2IDEwLjc2NjQgNy4zNTYwNCAxMC44NzA2IDcuNDYwMkwxMS4zMTk4IDcuOTA5NDJDMTEuNjk3NCA4LjI4NzAyIDExLjg5MjcgOC43MjMyMiAxMS45MDU3IDkuMjE4MDFDMTEuOTMxOCA5LjY5OTc4IDExLjc4MiAxMC4xMzYgMTEuNDU2NSAxMC41MjY2TDEyLjg0MzIgMTEuOTMyOFoiIGNsaXAtcnVsZT0iZXZlbm9kZCIgZmlsbC1ydWxlPSJldmVub2RkIi8+JiN4YTs8cGF0aCBmaWxsPSJ1cmwoI3BhaW50M19saW5lYXJfMzUxNF80MDIwMikiIGQ9Ik03LjcxNTE4IDguNzA0MDZDNy42MTEwMSA4LjgwODIzIDcuNDkzODIgOC44NjAzMSA3LjM2MzYxIDguODYwMzFDNy4yNDY0MiA4Ljg2MDMxIDcuMTM1NzUgOC44MDgyMyA3LjAzMTU4IDguNzA0MDZMNi4xMzMxNCA3LjgwNTYzTDUuNzQyNTIgOC4xOTYyNUM1LjYzODM1IDguMzAwNDIgNS41MjExNiA4LjM1MjUgNS4zOTA5NSA4LjM1MjVDNS4yNDc3MyA4LjM1MjUgNS4xMzA1NCA4LjMwMDQyIDUuMDM5MzkgOC4xOTYyNUw0LjU5MDE3IDcuNzY2NTdDNC4yMTI1NyA3LjM4ODk2IDQuMDEwNzUgNi45NTkyOCAzLjk4NDcgNi40Nzc1MUMzLjk1ODY2IDUuOTgyNzIgNC4wOTUzOCA1LjUzMzUgNC4zOTQ4NiA1LjEyOTg2TDMuMTU1NzYgMy44NTgzOUMzLjA1MTYgMy43NTQyMyAyLjk5OTUxIDMuNjM3MDQgMi45OTk1MSAzLjUwNjgzQzIuOTk5NTEgMy4zNzY2MyAzLjA1MTYgMy4yNTk0NCAzLjE1NTc2IDMuMTU1MjdDMy4yNTk5MyAzLjA1MTExIDMuMzcwNjEgMi45OTkwMiAzLjQ4Nzc5IDIuOTk5MDJDMy42MTggMi45OTkwMiAzLjczNTE5IDMuMDUxMTEgMy44MzkzNiAzLjE1NTI3TDUuMDc4NDUgNC40MjY3NEM1LjQ4MjEgNC4xMDEyMiA1LjkzNzgzIDMuOTUxNDggNi40NDU2NCAzLjk3NzUyQzYuOTUzNDYgNC4wMDM1NiA3LjM5NjE2IDQuMjA1MzggNy43NzM3NyA0LjU4Mjk5TDguMjIyOTkgNS4wMzIyQzguMzE0MTMgNS4xMjMzNSA4LjM1OTcxIDUuMjQwNTMgOC4zNTk3MSA1LjM4Mzc2QzguMzU5NzEgNS41MTM5NyA4LjMxNDEzIDUuNjI0NjUgOC4yMjI5OSA1LjcxNTc5TDcuODEyODMgNi4xMjU5NUw4LjcxMTI3IDcuMDA0ODVDOC44MTU0NCA3LjEwOTAyIDguODY3NTIgNy4yMjYyIDguODY3NTIgNy4zNTY0MUM4Ljg2NzUyIDcuNDg2NjIgOC44MTU0NCA3LjYwMzgxIDguNzExMjcgNy43MDc5N0M4LjYwNzEgNy44MTIxNCA4LjQ4OTkyIDcuODY0MjIgOC4zNTk3MSA3Ljg2NDIyQzguMjI5NSA3Ljg2NDIyIDguMTEyMzEgNy44MTIxNCA4LjAwODE0IDcuNzA3OTdMNy4xMjkyNCA2LjgwOTU0TDYuODE2NzQgNy4xMjIwNEw3LjI2NTk2IDcuNTYxNDlMNy43MTUxOCA4LjAwMDk0QzcuODE5MzQgOC4xMDUxMSA3Ljg3MTQzIDguMjIyMjkgNy44NzE0MyA4LjM1MjVDNy44NzE0MyA4LjQ4MjcxIDcuODE5MzQgOC41OTk5IDcuNzE1MTggOC43MDQwNloiLz4mI3hhOzwvZz4mI3hhOzxkZWZzPiYjeGE7PGxpbmVhckdyYWRpZW50IGdyYWRpZW50VW5pdHM9InVzZXJTcGFjZU9uVXNlIiB5Mj0iMTQuNzQ3IiB4Mj0iMTMuNjg3NCIgeTE9IjIuMjcwMTYiIHgxPSIxLjQ1MDQzIiBpZD0icGFpbnQwX2xpbmVhcl8zNTE0XzQwMjAyIj4mI3hhOzxzdG9wIHN0b3AtY29sb3I9IndoaXRlIi8+JiN4YTs8c3RvcCBzdG9wLWNvbG9yPSIjRUFFQ0VFIiBvZmZzZXQ9IjEiLz4mI3hhOzwvbGluZWFyR3JhZGllbnQ+JiN4YTs8bGluZWFyR3JhZGllbnQgZ3JhZGllbnRVbml0cz0idXNlclNwYWNlT25Vc2UiIHkyPSIxMS4wNTc0IiB4Mj0iMTEuMDciIHkxPSI0LjkyNTI1IiB4MT0iNC45MzM5NiIgaWQ9InBhaW50MV9saW5lYXJfMzUxNF80MDIwMiI+JiN4YTs8c3RvcCBzdG9wLWNvbG9yPSIjMDE5NUZGIi8+JiN4YTs8c3RvcCBzdG9wLWNvbG9yPSIjMTE0N0U5IiBvZmZzZXQ9IjAuOTkxMDI4Ii8+JiN4YTs8L2xpbmVhckdyYWRpZW50PiYjeGE7PGxpbmVhckdyYWRpZW50IGdyYWRpZW50VW5pdHM9InVzZXJTcGFjZU9uVXNlIiB5Mj0iMTEuOTkxOCIgeDI9IjEyLjEyODQiIHkxPSI4LjEyNDQ0IiB4MT0iOC4yOTkzOCIgaWQ9InBhaW50Ml9saW5lYXJfMzUxNF80MDIwMiI+JiN4YTs8c3RvcCBzdG9wLWNvbG9yPSIjMDBCQkZGIi8+JiN4YTs8c3RvcCBzdG9wLWNvbG9yPSIjMDA4QkZGIiBvZmZzZXQ9IjEiLz4mI3hhOzwvbGluZWFyR3JhZGllbnQ+JiN4YTs8bGluZWFyR3JhZGllbnQgZ3JhZGllbnRVbml0cz0idXNlclNwYWNlT25Vc2UiIHkyPSI3Ljk4NTcxIiB4Mj0iNy45NjkwMiIgeTE9IjMuODYxMzQiIHgxPSIzLjg2NzA2IiBpZD0icGFpbnQzX2xpbmVhcl8zNTE0XzQwMjAyIj4mI3hhOzxzdG9wIHN0b3AtY29sb3I9IiMxMzQ4RkYiLz4mI3hhOzxzdG9wIHN0b3AtY29sb3I9IiMwNjIzOEQiIG9mZnNldD0iMSIvPiYjeGE7PC9saW5lYXJHcmFkaWVudD4mI3hhOzxjbGlwUGF0aCBpZD0iY2xpcDBfMzUxNF80MDIwMiI+JiN4YTs8cmVjdCB0cmFuc2Zvcm09InRyYW5zbGF0ZSgyLjk5OTI3IDIuOTk5MDIpIiBmaWxsPSJ3aGl0ZSIgaGVpZ2h0PSI5Ljk5OTk2IiB3aWR0aD0iOS45OTk5NiIvPiYjeGE7PC9jbGlwUGF0aD4mI3hhOzwvZGVmcz4mI3hhOzwvc3ZnPg==;points=[[0,0,0,0,0],[0,0.25,0,0,0],[0,0.5,0,0,0],[0,0.75,0,0,0],[0.25,0,0,0,0],[0.5,0,0,0,0],[0.75,0,0,0,0],[1,0,0,0,0],[1,0.25,0,0,0],[1,0.5,0,0,0],[1,0.75,0,0,0]];fontStyle=0;fontSize=12;fontColor=#1D2D3E;container=0;" parent="i0-r0BhkWRjA8PmNq9u2-2" vertex="1">
          <mxGeometry x="221" y="445.65" width="56" height="56" as="geometry" />
        </mxCell>
        <mxCell id="i0-r0BhkWRjA8PmNq9u2-52" value="" style="edgeStyle=none;orthogonalLoop=1;jettySize=auto;html=1;rounded=0;endArrow=none;endFill=0;strokeWidth=2;" parent="i0-r0BhkWRjA8PmNq9u2-2" edge="1">
          <mxGeometry width="80" relative="1" as="geometry">
            <mxPoint x="391" as="sourcePoint" />
            <mxPoint x="391" y="640" as="targetPoint" />
            <Array as="points" />
          </mxGeometry>
        </mxCell>
        <mxCell id="i0-r0BhkWRjA8PmNq9u2-55" value="&lt;p style=&quot;line-height: 114%;&quot;&gt;&lt;font color=&quot;#475f75&quot; size=&quot;1&quot;&gt;&lt;b style=&quot;&quot;&gt;TRUST&lt;/b&gt;&lt;/font&gt;&lt;/p&gt;" style="rounded=1;whiteSpace=wrap;html=1;arcSize=50;strokeColor=#475f75;fillColor=#f5f6f7;fontColor=#266f3a;strokeWidth=1.5;" parent="i0-r0BhkWRjA8PmNq9u2-2" vertex="1">
          <mxGeometry x="374.14" y="342" width="41.99" height="16" as="geometry" />
        </mxCell>
        <mxCell id="i0-r0BhkWRjA8PmNq9u2-54" value="Cloud&#xa; Connector" style="shape=image;verticalLabelPosition=bottom;verticalAlign=top;aspect=fixed;imageAspect=0;image=data:image/svg+xml,PHN2ZyB4bWxucz0iaHR0cDovL3d3dy53My5vcmcvMjAwMC9zdmciIGZpbGw9Im5vbmUiIHZpZXdCb3g9IjAgMCAxNiAxNiIgaGVpZ2h0PSIxNiIgd2lkdGg9IjE2Ij4mI3hhOzxjaXJjbGUgc3Ryb2tlLXdpZHRoPSIwLjI4NTcwOCIgc3Ryb2tlPSIjRDVEQUREIiBmaWxsPSJ1cmwoI3BhaW50MF9saW5lYXJfMzg5MF8yMTUzNSkiIHI9IjcuODU2OTYiIGN5PSI3Ljk5NzM4IiBjeD0iNy45OTczOCIvPiYjeGE7PGcgY2xpcC1wYXRoPSJ1cmwoI2NsaXAwXzM4OTBfMjE1MzUpIj4mI3hhOzxwYXRoIGZpbGw9InVybCgjcGFpbnQxX2xpbmVhcl8zODkwXzIxNTM1KSIgZD0iTTcuODc5MTggOC42NDM4MUM3Ljk2MzM1IDguNjIxNDkgOC4wNDEzMyA4LjU3NDQ0IDguMTEzMTIgOC41MDI2NUM4LjIxNzI5IDguMzk4NDggOC4yNjkzNyA4LjI4MTI5IDguMjY5MzcgOC4xNTEwOEM4LjI2OTM3IDguMDIwODggOC4yMTcyOSA3LjkwMzY5IDguMTEzMTIgNy43OTk1Mkw3LjIxNDY5IDYuOTIwNjJMNy41MjcxOSA2LjYwODEyTDguNDA2MDkgNy41MDY1NkM4LjUxMDI2IDcuNjEwNzIgOC42Mjc0NSA3LjY2MjgxIDguNzU3NjYgNy42NjI4MUM4Ljg4Nzg2IDcuNjYyODEgOS4wMDUwNSA3LjYxMDcyIDkuMTA5MjIgNy41MDY1NkM5LjIxMzM5IDcuNDAyMzkgOS4yNjU0NyA3LjI4NTIgOS4yNjU0NyA3LjE1NDk5QzkuMjY1NDcgNy4wMjQ3OSA5LjIxMzM5IDYuOTA3NiA5LjEwOTIyIDYuODAzNDNMOC4yMTA3OCA1LjkyNDUzTDguNjIwOTQgNS41MTQzOEM4LjcxMjA4IDUuNDIzMjMgOC43NTc2NiA1LjMxMjU1IDguNzU3NjYgNS4xODIzNUM4Ljc1NzY2IDUuMDM5MTIgOC43MTIwOCA0LjkyMTkzIDguNjIwOTQgNC44MzA3OUw4LjE3MTcyIDQuMzgxNTdDNy43OTQxMSA0LjAwMzk3IDcuMzUxNCAzLjgwMjE0IDYuODQzNTkgMy43NzYxQzYuMzM1NzggMy43NTAwNiA1Ljg4MDA1IDMuODk5OCA1LjQ3NjQgNC4yMjUzMkw0LjIzNzMxIDIuOTUzODZDNC4xMzMxNCAyLjg0OTY5IDQuMDE1OTUgMi43OTc2MSAzLjg4NTc0IDIuNzk3NjFDMy43Njg1NSAyLjc5NzYxIDMuNjU3ODggMi44NDk2OSAzLjU1MzcxIDIuOTUzODZDMy40NDk1NCAzLjA1ODAyIDMuMzk3NDYgMy4xNzUyMSAzLjM5NzQ2IDMuMzA1NDJDMy4zOTc0NiAzLjQzNTYzIDMuNDQ5NTQgMy41NTI4MSAzLjU1MzcxIDMuNjU2OThMNC43OTI4MSA0LjkyODQ0QzQuNDkzMzMgNS4zMzIwOSA0LjM1NjYxIDUuNzgxMyA0LjM4MjY1IDYuMjc2MDlDNC40MDg2OSA2Ljc1Nzg2IDQuNjEwNTIgNy4xODc1NSA0Ljk4ODEyIDcuNTY1MTVMNS4zNTkyMSA3LjkyMDFDNS41ODIzNyA3Ljg1Mzg1IDUuODEzMjMgNy44MjAxOSA2LjA0ODk4IDcuODIwMTlDNi41NjI2OCA3LjgyMDE5IDcuMDM3OSA3Ljk3OTkzIDcuNDUyNTQgOC4yNzEzQzcuNjA5ODYgOC4zODE4NSA3Ljc1MjAzIDguNTA2NTQgNy44NzkxOCA4LjY0MzgxWiIvPiYjeGE7PHBhdGggZmlsbD0idXJsKCNwYWludDJfbGluZWFyXzM4OTBfMjE1MzUpIiBkPSJNMTMuMzY2MiAxMi4yNTA3QzEzLjM2NjIgMTIuMTMzNSAxMy4zMTQyIDEyLjAyMjggMTMuMjEgMTEuOTE4N0wxMS44MjMzIDEwLjUxMjRDMTIuMTQ4OCAxMC4xMjE4IDEyLjI5ODUgOS42ODU2MiAxMi4yNzI1IDkuMjAzODVDMTIuMjU5NSA4LjcwOTA2IDEyLjA2NDIgOC4yNzI4NiAxMS42ODY2IDcuODk1MjZMMTEuMjM3MyA3LjQ0NjA0QzExLjEzMzIgNy4zNDE4OCAxMS4wMTYgNy4yODk3OSAxMC44ODU4IDcuMjg5NzlDMTAuNzU1NiA3LjI4OTc5IDEwLjYzODQgNy4zNDE4OCAxMC41MzQyIDcuNDQ2MDRMOC43MTYzMSA5LjI2Mzk2QzguODY2NjcgOS4zNzc0NSA5LjAwMTk4IDkuNTA4OTIgOS4xMjEzMiA5LjY1NjVDOS4zMDkyIDkuODgyMDIgOS40NTAxMSAxMC4xMzU3IDkuNTQ4MTUgMTAuNDA4QzkuNjUyODMgMTAuNjk4OCA5LjcwMDQ4IDExLjAwMDkgOS43MDA0OCAxMS4zMDZDOS43MDA0OCAxMS40NDM4IDkuNjkwNTMgMTEuNTgwNiA5LjY3MDMgMTEuNzE1N0M5LjcwNDA3IDExLjcxOSA5LjczODE0IDExLjcyMTYgOS43NzI1MSAxMS43MjM0QzEwLjI4MDMgMTEuNzM2NCAxMC43MzYgMTEuNTY3MSAxMS4xMzk3IDExLjIxNTZMMTIuNTI2NCAxMi42MDIzQzEyLjYzMDYgMTIuNzA2NCAxMi43NDEyIDEyLjc1ODUgMTIuODU4NCAxMi43NTg1QzEyLjk4ODYgMTIuNzU4NSAxMy4xMDU4IDEyLjcwNjQgMTMuMjEgMTIuNjAyM0MxMy4zMTQyIDEyLjQ5ODEgMTMuMzY2MiAxMi4zODA5IDEzLjM2NjIgMTIuMjUwN1oiLz4mI3hhOzxwYXRoIGZpbGw9InVybCgjcGFpbnQzX2xpbmVhcl8zODkwXzIxNTM1KSIgZD0iTTQuNTI2NDUgMTIuNzk3N0g3LjM1NDExQzcuNTQwNTUgMTIuNzk3NyA3LjcxNjYzIDEyLjc1OTcgNy44ODIzNSAxMi42ODM3QzguMDQ4MDggMTIuNjA3OCA4LjE4OTYzIDEyLjUwNDIgOC4zMDcwMiAxMi4zNzNDOC40MzEzMSAxMi4yMzQ5IDguNTI3OTkgMTIuMDc2MSA4LjU5NzA0IDExLjg5NjZDOC42NjYwOSAxMS43MTAxIDguNzAwNjEgMTEuNTEzMyA4LjcwMDYxIDExLjMwNjJDOC43MDA2MSAxMS4xMDU5IDguNjY5NTQgMTAuOTE5NSA4LjYwNzQgMTAuNzQ2OEM4LjU0NTI1IDEwLjU3NDIgOC40NTg5MyAxMC40MjIzIDguMzQ4NDUgMTAuMjkxMUM4LjIzNzk3IDEwLjE1MyA4LjEwNjc3IDEwLjA0MjUgNy45NTQ4NiA5Ljk1OTY2QzcuODAyOTUgOS44NzY4IDcuNjQwNjcgOS44Mjg0NiA3LjQ2ODA1IDkuODE0NjVDNy4zMjk5NCA5LjUxMDgzIDcuMTMzMTUgOS4yNjkxNSA2Ljg3NzY2IDkuMDg5NjFDNi42MjIxNyA4LjkxMDA4IDYuMzQ1OTYgOC44MjAzMSA2LjA0OTA0IDguODIwMzFDNS44NTU2OSA4LjgyMDMxIDUuNjY5MjUgOC44NTgyOSA1LjQ4OTcyIDguOTM0MjVDNS4zMTcwOSA5LjAxMDIgNS4xNjE3MyA5LjExMzc4IDUuMDIzNjIgOS4yNDQ5OEM0Ljg4NTUyIDkuMzc2MTggNC43NzE1OSA5LjUzNSA0LjY4MTgyIDkuNzIxNDNDNC41OTIwNSA5LjkwMDk3IDQuNTI5OTEgMTAuMDk0MyA0LjQ5NTM4IDEwLjMwMTVDNC4zNDM0NyAxMC4zMDE1IDQuMTk4NDYgMTAuMzM2IDQuMDYwMzYgMTAuNDA1QzMuOTI5MTYgMTAuNDY3MiAzLjgxNTIyIDEwLjU1NyAzLjcxODU1IDEwLjY3NDNDMy42MjE4OCAxMC43ODQ4IDMuNTQyNDcgMTAuOTE2IDMuNDgwMzIgMTEuMDY3OUMzLjQyNTA4IDExLjIxOTkgMy4zOTc0NiAxMS4zNzg3IDMuMzk3NDYgMTEuNTQ0NEMzLjM5NzQ2IDExLjcxNyAzLjQyNTA4IDExLjg3OTMgMy40ODAzMiAxMi4wMzEyQzMuNTQyNDcgMTIuMTgzMSAzLjYyNTMzIDEyLjMxNzggMy43Mjg5MSAxMi40MzUyQzMuODMyNDkgMTIuNTQ1NiAzLjk1MzMzIDEyLjYzNTQgNC4wOTE0MyAxMi43MDQ1QzQuMjI5NTMgMTIuNzY2NiA0LjM3NDU0IDEyLjc5NzcgNC41MjY0NSAxMi43OTc3WiIvPiYjeGE7PC9nPiYjeGE7PGRlZnM+JiN4YTs8bGluZWFyR3JhZGllbnQgZ3JhZGllbnRVbml0cz0idXNlclNwYWNlT25Vc2UiIHkyPSIxNC43NDUzIiB4Mj0iMTMuNjg1NCIgeTE9IjIuMjY4NDUiIHgxPSIxLjQ0ODQ4IiBpZD0icGFpbnQwX2xpbmVhcl8zODkwXzIxNTM1Ij4mI3hhOzxzdG9wIHN0b3AtY29sb3I9IndoaXRlIi8+JiN4YTs8c3RvcCBzdG9wLWNvbG9yPSIjRUFFQ0VFIiBvZmZzZXQ9IjEiLz4mI3hhOzwvbGluZWFyR3JhZGllbnQ+JiN4YTs8bGluZWFyR3JhZGllbnQgZ3JhZGllbnRVbml0cz0idXNlclNwYWNlT25Vc2UiIHkyPSI3Ljc4MjAyIiB4Mj0iOC4zNzA1NSIgeTE9IjMuNjcxODciIHgxPSI0LjI3NzEiIGlkPSJwYWludDFfbGluZWFyXzM4OTBfMjE1MzUiPiYjeGE7PHN0b3Agc3RvcC1jb2xvcj0iIzAxOTVGRiIvPiYjeGE7PHN0b3Agc3RvcC1jb2xvcj0iIzExNDdFOSIgb2Zmc2V0PSIwLjk5MTAyOCIvPiYjeGE7PC9saW5lYXJHcmFkaWVudD4mI3hhOzxsaW5lYXJHcmFkaWVudCBncmFkaWVudFVuaXRzPSJ1c2VyU3BhY2VPblVzZSIgeTI9IjExLjMyMjQiIHgyPSIxMy4xOTI5IiB5MT0iOC4xMDc2MSIgeDE9IjkuNDEzMzUiIGlkPSJwYWludDJfbGluZWFyXzM4OTBfMjE1MzUiPiYjeGE7PHN0b3Agc3RvcC1jb2xvcj0iIzAxOTVGRiIvPiYjeGE7PHN0b3Agc3RvcC1jb2xvcj0iIzExNDdFOSIgb2Zmc2V0PSIwLjk5MTAyOCIvPiYjeGE7PC9saW5lYXJHcmFkaWVudD4mI3hhOzxsaW5lYXJHcmFkaWVudCBncmFkaWVudFVuaXRzPSJ1c2VyU3BhY2VPblVzZSIgeTI9IjEyLjk3OTQiIHgyPSI2Ljg1MDQ4IiB5MT0iOS40MDU0NyIgeDE9IjQuMTgxNSIgaWQ9InBhaW50M19saW5lYXJfMzg5MF8yMTUzNSI+JiN4YTs8c3RvcCBzdG9wLWNvbG9yPSIjMTM0OEZGIi8+JiN4YTs8c3RvcCBzdG9wLWNvbG9yPSIjMDYyMzhEIiBvZmZzZXQ9IjEiLz4mI3hhOzwvbGluZWFyR3JhZGllbnQ+JiN4YTs8Y2xpcFBhdGggaWQ9ImNsaXAwXzM4OTBfMjE1MzUiPiYjeGE7PHJlY3QgdHJhbnNmb3JtPSJ0cmFuc2xhdGUoMy4zOTc0NiAyLjc5NzYxKSIgZmlsbD0id2hpdGUiIGhlaWdodD0iMTAiIHdpZHRoPSIxMCIvPiYjeGE7PC9jbGlwUGF0aD4mI3hhOzwvZGVmcz4mI3hhOzwvc3ZnPg==;fontStyle=0;fontSize=12;fontColor=#1D2D3E" parent="i0-r0BhkWRjA8PmNq9u2-2" vertex="1">
          <mxGeometry x="496.71000000000004" y="323.71" width="54.29" height="54.29" as="geometry" />
        </mxCell>
        <mxCell id="i0-r0BhkWRjA8PmNq9u2-57" value="" style="endArrow=blockThin;html=1;rounded=0;strokeColor=#A3A3A3;strokeWidth=2;exitX=1.015;exitY=0.505;exitDx=0;exitDy=0;exitPerimeter=0;endFill=1;endSize=4;startSize=4;entryX=0;entryY=0.5;entryDx=0;entryDy=0;" parent="i0-r0BhkWRjA8PmNq9u2-2" source="i0-r0BhkWRjA8PmNq9u2-55" target="i0-r0BhkWRjA8PmNq9u2-54" edge="1">
          <mxGeometry width="50" height="50" relative="1" as="geometry">
            <mxPoint x="419.14" y="349.95000000000005" as="sourcePoint" />
            <mxPoint x="551.0000000000001" y="330.855" as="targetPoint" />
          </mxGeometry>
        </mxCell>
        <mxCell id="f8Z3kIdqOoFyPufPkXmr-5" value="SAP Build Work Zone -&#xa;Standard Edition" style="shape=image;verticalLabelPosition=bottom;verticalAlign=top;aspect=fixed;imageAspect=0;image=data:image/svg+xml,PHN2ZyB4bWxucz0iaHR0cDovL3d3dy53My5vcmcvMjAwMC9zdmciIGZpbGw9Im5vbmUiIHZpZXdCb3g9IjAgMCAxNiAxNiIgaGVpZ2h0PSIxNiIgd2lkdGg9IjE2Ij4mI3hhOzxnIGNsaXAtcGF0aD0idXJsKCNjbGlwMF8zMTA2XzI3MTAxKSI+JiN4YTs8Y2lyY2xlIHN0cm9rZS13aWR0aD0iMC4yNzM4MDkiIHN0cm9rZT0iI0Q1REFERCIgZmlsbD0idXJsKCNwYWludDBfbGluZWFyXzMxMDZfMjcxMDEpIiByPSI3LjUyOTc0IiBjeT0iNy45OTk4OSIgY3g9IjcuOTk4OTIiLz4mI3hhOzxnIGNsaXAtcGF0aD0idXJsKCNjbGlwMV8zMTA2XzI3MTAxKSI+JiN4YTs8bWFzayBoZWlnaHQ9IjEzIiB3aWR0aD0iMTIiIHk9IjIiIHg9IjIiIG1hc2tVbml0cz0idXNlclNwYWNlT25Vc2UiIHN0eWxlPSJtYXNrLXR5cGU6YWxwaGEiIGlkPSJtYXNrMF8zMTA2XzI3MTAxIj4mI3hhOzxwYXRoIGZpbGw9ImJsYWNrIiBkPSJNOC40MjExOCAxMC43MzMzQzguNjQxMDYgMTEuMzUyNCA5LjI4Njc1IDExLjcwNDcgMTAuMDEwNSAxMS43MDQ3QzEwLjczNDIgMTEuNzA0NyAxMS4zNDY4IDExLjE3OTEgMTEuNTE5NyAxMC43MDdMMTIuODg3NyA2LjkzODQ5QzEzLjE2MDEgNi4xODgwNCAxMi43NzQyIDUuMzU4MjQgMTIuMDI1OCA1LjA4NTFDMTEuMzM3NCA0LjgzMzg5IDEwLjU4MjIgNS4xNDEgMTAuMjUzNCA1Ljc3NTcyQzEwLjIwMTEgNS44OTQwOSAxMC4xNDc1IDYuMDcyMTYgMTAuMjExNiA2LjI2MTc3TDEwLjg5OTYgOC4xNjUzMUMxMC45MzQxIDguMjYwNzUgMTAuODg5NSA4LjM2NjczIDEwLjc5NzIgOC40MDg0NUMxMC42ODMzIDguNDU5OTMgMTAuNTQ2OCA4LjM5MjYzIDEwLjUxNjggOC4yNzEwNkMxMC4yOTc0IDcuMzgyODcgOS41NjI3OCA2LjgxNjE3IDguNjU0NiA3LjE1MDYzQzcuNzQ2NDIgNy40ODUxIDcuNTU1MjEgOC4zNDc3MiA3LjgyNzYzIDkuMDk4MThMOC40MjExOCAxMC43MzMzWiIvPiYjeGE7PHBhdGggZmlsbD0iYmxhY2siIGQ9Ik0zLjQ3MjEzIDYuOTMyNDVDMy4xOTk3MiA2LjE4MTk5IDMuNTg1NjIgNS4zNTIyIDQuMzM0MDYgNS4wNzkwNkM1LjA4MjUxIDQuODA1OTEgNS45MTAwOCA1LjE5Mjg1IDYuMTgyNSA1Ljk0MzMxTDcuNTQ5NzQgOS43MDk4MkM3LjgyMjE1IDEwLjQ2MDMgNy40MzYyNiAxMS4yOTAxIDYuNjg3ODEgMTEuNTYzMkM1LjkzOTM2IDExLjgzNjQgNS4xMTE3OSAxMS40NDk0IDQuODM5MzcgMTAuNjk5TDMuNDcyMTMgNi45MzI0NVoiLz4mI3hhOzwvbWFzaz4mI3hhOzxnIG1hc2s9InVybCgjbWFzazBfMzEwNl8yNzEwMSkiPiYjeGE7PGcgZmlsdGVyPSJ1cmwoI2ZpbHRlcjBfZF8zMTA2XzI3MTAxKSI+JiN4YTs8cGF0aCBmaWxsPSJ1cmwoI3BhaW50MV9yYWRpYWxfMzEwNl8yNzEwMSkiIGQ9Ik02LjYzNDM0IDAuODcxOTU0QzguNjcyNDkgMC4yOTI4MzUgMTEuMDgyMyAxLjI5MTgzIDEyLjU1MTQgMy45Mzg4NEMxNi4zMzM1IDkuMDE5NDkgMTkuNzUzNyAxNC45MTk2IDExLjk2MDkgMTcuNjc2OEM0LjE2ODEzIDIwLjQzNCA0LjM1MDY3IDE0Ljc3ODIgMS43NTIyNSAxMC4wOTY0Qy0wLjg0NjE2NyA1LjQxNDU1IDQuNTk2MTkgMS40NTEwNyA2LjYzNDM0IDAuODcxOTU0WiIvPiYjeGE7PC9nPiYjeGE7PGcgZmlsdGVyPSJ1cmwoI2ZpbHRlcjFfZF8zMTA2XzI3MTAxKSI+JiN4YTs8cGF0aCBmaWxsPSJ1cmwoI3BhaW50Ml9yYWRpYWxfMzEwNl8yNzEwMSkiIGQ9Ik0xMi42NTQyIDEwLjI3OThDMTEuODQ2MiAxMi4wMTA3IDkuNTMyOTggMTQuMDk2MSA3Ljk2MzgxIDE0LjIzNTdDNC43NDYwMyAxNC45MzE0IC0wLjI2MjI1NSAxMS43NDczIDAuMTY2MTEgOS41ODQ4MUMwLjU5NDQ3NSA3LjQyMjM3IDQuNjY1NjUgNi4zNjU5OSA3LjQ1MjY5IDYuMzg5OTNDMTAuMjM5NyA2LjQxMzg4IDEzLjQ2MjEgOC41NDg5NSAxMi42NTQyIDEwLjI3OThaIi8+JiN4YTs8L2c+JiN4YTs8ZyBmaWx0ZXI9InVybCgjZmlsdGVyMl9kXzMxMDZfMjcxMDEpIj4mI3hhOzxwYXRoIGZpbGw9InVybCgjcGFpbnQzX3JhZGlhbF8zMTA2XzI3MTAxKSIgZD0iTTMuMzUzNjEgOC4zOTkzNkM2Ljk2MjAxIDcuNDQ1NTcgMTAuMTEwOSA3LjMwNjg2IDEwLjQ4NjcgMTAuNjg5NkMxMC43OTE3IDEzLjQzNDkgNi45NTY4IDE1LjY1NzggNC4yMTE0NyAxNS45NjI4QzEuNDY2MTQgMTYuMjY3OCAtMC4xMDIyOTYgOS4zMTI4NCAzLjM1MzYxIDguMzk5MzZaIi8+JiN4YTs8L2c+JiN4YTs8L2c+JiN4YTs8L2c+JiN4YTs8L2c+JiN4YTs8ZGVmcz4mI3hhOzxmaWx0ZXIgY29sb3ItaW50ZXJwb2xhdGlvbi1maWx0ZXJzPSJzUkdCIiBmaWx0ZXJVbml0cz0idXNlclNwYWNlT25Vc2UiIGhlaWdodD0iMTkuMDM1MiIgd2lkdGg9IjE2Ljk0MTQiIHk9IjAuMDg1MTI1NCIgeD0iMC42MTQ4MjkiIGlkPSJmaWx0ZXIwX2RfMzEwNl8yNzEwMSI+JiN4YTs8ZmVGbG9vZCByZXN1bHQ9IkJhY2tncm91bmRJbWFnZUZpeCIgZmxvb2Qtb3BhY2l0eT0iMCIvPiYjeGE7PGZlQ29sb3JNYXRyaXggcmVzdWx0PSJoYXJkQWxwaGEiIHZhbHVlcz0iMCAwIDAgMCAwIDAgMCAwIDAgMCAwIDAgMCAwIDAgMCAwIDAgMTI3IDAiIHR5cGU9Im1hdHJpeCIgaW49IlNvdXJjZUFscGhhIi8+JiN4YTs8ZmVPZmZzZXQgZHk9IjAuMDQ0ODQwNCIgZHg9IjAuMjI0MjAyIi8+JiN4YTs8ZmVHYXVzc2lhbkJsdXIgc3RkRGV2aWF0aW9uPSIwLjMzNjMwMyIvPiYjeGE7PGZlQ29tcG9zaXRlIG9wZXJhdG9yPSJvdXQiIGluMj0iaGFyZEFscGhhIi8+JiN4YTs8ZmVDb2xvck1hdHJpeCB2YWx1ZXM9IjAgMCAwIDAgMCAwIDAgMCAwIDAgMCAwIDAgMCAwIDAgMCAwIDAuNCAwIiB0eXBlPSJtYXRyaXgiLz4mI3hhOzxmZUJsZW5kIHJlc3VsdD0iZWZmZWN0MV9kcm9wU2hhZG93XzMxMDZfMjcxMDEiIGluMj0iQmFja2dyb3VuZEltYWdlRml4IiBtb2RlPSJub3JtYWwiLz4mI3hhOzxmZUJsZW5kIHJlc3VsdD0ic2hhcGUiIGluMj0iZWZmZWN0MV9kcm9wU2hhZG93XzMxMDZfMjcxMDEiIGluPSJTb3VyY2VHcmFwaGljIiBtb2RlPSJub3JtYWwiLz4mI3hhOzwvZmlsdGVyPiYjeGE7PGZpbHRlciBjb2xvci1pbnRlcnBvbGF0aW9uLWZpbHRlcnM9InNSR0IiIGZpbHRlclVuaXRzPSJ1c2VyU3BhY2VPblVzZSIgaGVpZ2h0PSI5LjI4ODU3IiB3aWR0aD0iMTMuOTg1MyIgeT0iNS43NjE4OCIgeD0iLTAuMzA4MDIzIiBpZD0iZmlsdGVyMV9kXzMxMDZfMjcxMDEiPiYjeGE7PGZlRmxvb2QgcmVzdWx0PSJCYWNrZ3JvdW5kSW1hZ2VGaXgiIGZsb29kLW9wYWNpdHk9IjAiLz4mI3hhOzxmZUNvbG9yTWF0cml4IHJlc3VsdD0iaGFyZEFscGhhIiB2YWx1ZXM9IjAgMCAwIDAgMCAwIDAgMCAwIDAgMCAwIDAgMCAwIDAgMCAwIDEyNyAwIiB0eXBlPSJtYXRyaXgiIGluPSJTb3VyY2VBbHBoYSIvPiYjeGE7PGZlT2Zmc2V0IGR5PSIwLjA0NDg0MDQiIGR4PSIwLjIyNDIwMiIvPiYjeGE7PGZlR2F1c3NpYW5CbHVyIHN0ZERldmlhdGlvbj0iMC4zMzYzMDMiLz4mI3hhOzxmZUNvbXBvc2l0ZSBvcGVyYXRvcj0ib3V0IiBpbjI9ImhhcmRBbHBoYSIvPiYjeGE7PGZlQ29sb3JNYXRyaXggdmFsdWVzPSIwIDAgMCAwIDAgMCAwIDAgMCAwIDAgMCAwIDAgMCAwIDAgMCAwLjQgMCIgdHlwZT0ibWF0cml4Ii8+JiN4YTs8ZmVCbGVuZCByZXN1bHQ9ImVmZmVjdDFfZHJvcFNoYWRvd18zMTA2XzI3MTAxIiBpbjI9IkJhY2tncm91bmRJbWFnZUZpeCIgbW9kZT0ibm9ybWFsIi8+JiN4YTs8ZmVCbGVuZCByZXN1bHQ9InNoYXBlIiBpbjI9ImVmZmVjdDFfZHJvcFNoYWRvd18zMTA2XzI3MTAxIiBpbj0iU291cmNlR3JhcGhpYyIgbW9kZT0ibm9ybWFsIi8+JiN4YTs8L2ZpbHRlcj4mI3hhOzxmaWx0ZXIgY29sb3ItaW50ZXJwb2xhdGlvbi1maWx0ZXJzPSJzUkdCIiBmaWx0ZXJVbml0cz0idXNlclNwYWNlT25Vc2UiIGhlaWdodD0iOS41MDUzNyIgd2lkdGg9IjEwLjQ3NzgiIHk9IjcuMTg0NDkiIHg9IjAuOTIyOTM0IiBpZD0iZmlsdGVyMl9kXzMxMDZfMjcxMDEiPiYjeGE7PGZlRmxvb2QgcmVzdWx0PSJCYWNrZ3JvdW5kSW1hZ2VGaXgiIGZsb29kLW9wYWNpdHk9IjAiLz4mI3hhOzxmZUNvbG9yTWF0cml4IHJlc3VsdD0iaGFyZEFscGhhIiB2YWx1ZXM9IjAgMCAwIDAgMCAwIDAgMCAwIDAgMCAwIDAgMCAwIDAgMCAwIDEyNyAwIiB0eXBlPSJtYXRyaXgiIGluPSJTb3VyY2VBbHBoYSIvPiYjeGE7PGZlT2Zmc2V0IGR5PSIwLjA0NDg0MDQiIGR4PSIwLjIyNDIwMiIvPiYjeGE7PGZlR2F1c3NpYW5CbHVyIHN0ZERldmlhdGlvbj0iMC4zMzYzMDMiLz4mI3hhOzxmZUNvbXBvc2l0ZSBvcGVyYXRvcj0ib3V0IiBpbjI9ImhhcmRBbHBoYSIvPiYjeGE7PGZlQ29sb3JNYXRyaXggdmFsdWVzPSIwIDAgMCAwIDAgMCAwIDAgMCAwIDAgMCAwIDAgMCAwIDAgMCAwLjQgMCIgdHlwZT0ibWF0cml4Ii8+JiN4YTs8ZmVCbGVuZCByZXN1bHQ9ImVmZmVjdDFfZHJvcFNoYWRvd18zMTA2XzI3MTAxIiBpbjI9IkJhY2tncm91bmRJbWFnZUZpeCIgbW9kZT0ibm9ybWFsIi8+JiN4YTs8ZmVCbGVuZCByZXN1bHQ9InNoYXBlIiBpbjI9ImVmZmVjdDFfZHJvcFNoYWRvd18zMTA2XzI3MTAxIiBpbj0iU291cmNlR3JhcGhpYyIgbW9kZT0ibm9ybWFsIi8+JiN4YTs8L2ZpbHRlcj4mI3hhOzxsaW5lYXJHcmFkaWVudCBncmFkaWVudFVuaXRzPSJ1c2VyU3BhY2VPblVzZSIgeTI9IjE0LjQ2NjgiIHgyPSIxMy40NTAxIiB5MT0iMi41MDk1NyIgeDE9IjEuNzIyNzciIGlkPSJwYWludDBfbGluZWFyXzMxMDZfMjcxMDEiPiYjeGE7PHN0b3Agc3RvcC1jb2xvcj0id2hpdGUiLz4mI3hhOzxzdG9wIHN0b3AtY29sb3I9IiNFQUVDRUUiIG9mZnNldD0iMSIvPiYjeGE7PC9saW5lYXJHcmFkaWVudD4mI3hhOzxyYWRpYWxHcmFkaWVudCBncmFkaWVudFRyYW5zZm9ybT0idHJhbnNsYXRlKDcuMTQyMiAxMC41MTEzKSByb3RhdGUoLTc1LjY1MTMpIHNjYWxlKDE1Ljk3MDUgMTUuNzQ5OCkiIGdyYWRpZW50VW5pdHM9InVzZXJTcGFjZU9uVXNlIiByPSIxIiBjeT0iMCIgY3g9IjAiIGlkPSJwYWludDFfcmFkaWFsXzMxMDZfMjcxMDEiPiYjeGE7PHN0b3Agc3RvcC1jb2xvcj0iIzEzNDhGRiIvPiYjeGE7PHN0b3Agc3RvcC1jb2xvcj0iIzA2MjM4RCIgb2Zmc2V0PSIxIi8+JiN4YTs8L3JhZGlhbEdyYWRpZW50PiYjeGE7PHJhZGlhbEdyYWRpZW50IGdyYWRpZW50VHJhbnNmb3JtPSJ0cmFuc2xhdGUoMy4xOTI5OSA3LjMwMjE1KSByb3RhdGUoMzEuOTgpIHNjYWxlKDE1LjI2ODUgMjcuNTc2KSIgZ3JhZGllbnRVbml0cz0idXNlclNwYWNlT25Vc2UiIHI9IjEiIGN5PSIwIiBjeD0iMCIgaWQ9InBhaW50Ml9yYWRpYWxfMzEwNl8yNzEwMSI+JiN4YTs8c3RvcCBzdG9wLWNvbG9yPSIjMDE5NUZGIi8+JiN4YTs8c3RvcCBzdG9wLWNvbG9yPSIjMTE0N0U5IiBvZmZzZXQ9IjEiLz4mI3hhOzwvcmFkaWFsR3JhZGllbnQ+JiN4YTs8cmFkaWFsR3JhZGllbnQgZ3JhZGllbnRUcmFuc2Zvcm09InRyYW5zbGF0ZSgzLjg2NDM3IDE1LjI1NDIpIHJvdGF0ZSgtNDYuOTU3OSkgc2NhbGUoMTEuNzY0NCAxNi4xODIpIiBncmFkaWVudFVuaXRzPSJ1c2VyU3BhY2VPblVzZSIgcj0iMSIgY3k9IjAiIGN4PSIwIiBpZD0icGFpbnQzX3JhZGlhbF8zMTA2XzI3MTAxIj4mI3hhOzxzdG9wIHN0b3AtY29sb3I9IiMwMEJCRkYiLz4mI3hhOzxzdG9wIHN0b3AtY29sb3I9IiMwMDhCRkYiIG9mZnNldD0iMSIvPiYjeGE7PC9yYWRpYWxHcmFkaWVudD4mI3hhOzxjbGlwUGF0aCBpZD0iY2xpcDBfMzEwNl8yNzEwMSI+JiN4YTs8cmVjdCB0cmFuc2Zvcm09InRyYW5zbGF0ZSgtMC4wMDA5NzY1NjIpIiBmaWxsPSJ3aGl0ZSIgaGVpZ2h0PSIxNS45OTk5IiB3aWR0aD0iMTUuOTk5OSIvPiYjeGE7PC9jbGlwUGF0aD4mI3hhOzxjbGlwUGF0aCBpZD0iY2xpcDFfMzEwNl8yNzEwMSI+JiN4YTs8cmVjdCB0cmFuc2Zvcm09InRyYW5zbGF0ZSgzLjMzMjI4IDMuNSkiIGZpbGw9IndoaXRlIiBoZWlnaHQ9IjkuNjY2NjQiIHdpZHRoPSI5LjY2NjY0Ii8+JiN4YTs8L2NsaXBQYXRoPiYjeGE7PC9kZWZzPiYjeGE7PC9zdmc+;points=[[0,0,0,0,0],[0,0.25,0,0,0],[0,0.5,0,0,0],[0,0.75,0,0,0],[0.25,0,0,0,0],[0.5,0,0,0,0],[0.75,0,0,0,0],[1,0,0,0,0],[1,0.25,0,0,0],[1,0.5,0,0,0],[1,0.75,0,0,0]];container=0;fontStyle=0;fontSize=12;fontColor=#1D2D3E;" vertex="1" parent="i0-r0BhkWRjA8PmNq9u2-2">
          <mxGeometry x="71" y="200" width="40" height="40" as="geometry" />
        </mxCell>
        <mxCell id="iBaNymkaQX2o0GxHc3xv-3" style="edgeStyle=orthogonalEdgeStyle;rounded=0;orthogonalLoop=1;jettySize=auto;html=1;exitX=1;exitY=0.5;exitDx=0;exitDy=0;exitPerimeter=0;strokeColor=#A3A3A3;strokeWidth=2;endArrow=none;endFill=0;entryX=0;entryY=0.5;entryDx=0;entryDy=0;" edge="1" parent="i0-r0BhkWRjA8PmNq9u2-2" source="i0-r0BhkWRjA8PmNq9u2-51" target="i0-r0BhkWRjA8PmNq9u2-55">
          <mxGeometry relative="1" as="geometry">
            <mxPoint x="146" y="484" as="sourcePoint" />
            <mxPoint x="231" y="484" as="targetPoint" />
            <Array as="points" />
          </mxGeometry>
        </mxCell>
        <mxCell id="iBaNymkaQX2o0GxHc3xv-5" value="SAP Cloud &#xa;Identity Service" style="shape=image;verticalLabelPosition=bottom;verticalAlign=top;aspect=fixed;imageAspect=0;image=data:image/svg+xml,PHN2ZyB4bWxucz0iaHR0cDovL3d3dy53My5vcmcvMjAwMC9zdmciIGZpbGw9Im5vbmUiIHZpZXdCb3g9IjAgMCAxNiAxNiIgaGVpZ2h0PSIxNiIgd2lkdGg9IjE2Ij4mI3hhOzxjaXJjbGUgc3Ryb2tlLXdpZHRoPSIwLjI4NTcwOCIgc3Ryb2tlPSIjRDVEQUREIiBmaWxsPSJ1cmwoI3BhaW50MF9saW5lYXJfMzg5MF8yMTUyMSkiIHI9IjcuODU2OTYiIGN5PSI3Ljk5Nzg2IiBjeD0iNy45OTY0Ii8+JiN4YTs8ZyBjbGlwLXBhdGg9InVybCgjY2xpcDBfMzg5MF8yMTUyMSkiPiYjeGE7PHBhdGggZmlsbD0idXJsKCNwYWludDFfbGluZWFyXzM4OTBfMjE1MjEpIiBkPSJNNy40MDk4OCAzLjM5Nzk1QzYuMDY2NjIgMy4zOTc5NSA0Ljk3NDI0IDQuNDgzMDIgNC45NzQyNCA1LjgyNTc4QzQuOTc0MjQgNi41MTYxNiA1LjI2MzAyIDcuMTM4NDIgNS43MjYyIDcuNTgwMTFDNC41MDE2OCA4LjA2MjIxIDMuNTk2NjggOS4wNjA3NiAzLjU5NjY4IDEwLjMyNzZWMTEuMTgyMUMzLjU5NjY4IDExLjQ1ODMgMy44MjA1NCAxMS42ODIxIDQuMDk2NjggMTEuNjgyMUg2LjQ3NTI5QzYuNzUxNDQgMTEuNjgyMSA2Ljk3NTI5IDExLjQ1ODMgNi45NzUyOSAxMS4xODIxQzYuOTc1MjkgMTAuOTA2IDYuNzUxNDQgMTAuNjgyMSA2LjQ3NTI5IDEwLjY4MjFINC41OTY2OFYxMC4zMjc2QzQuNTk2NjggOS4yOTk4NyA1LjcyOTI5IDguMjY0MzMgNy40MDk5NiA4LjI2NDMzQzcuNDQ5NzIgOC4yNjQzMyA3LjQ4ODQgOC4yNTk2OCA3LjUyNTQ4IDguMjUwOTFDOC44MTUyNSA4LjE5MDc5IDkuODQ1NTIgNy4xMjk4IDkuODQ1NTIgNS44MjU3OEM5Ljg0NTUyIDQuNDgzMDIgOC43NTMxNCAzLjM5Nzk1IDcuNDA5ODggMy4zOTc5NVpNNS45NzQyNCA1LjgyNTc4QzUuOTc0MjQgNS4wMzkxMSA2LjYxNTA5IDQuMzk3OTUgNy40MDk4OCA0LjM5Nzk1QzguMjA0NjcgNC4zOTc5NSA4Ljg0NTUyIDUuMDM5MTEgOC44NDU1MiA1LjgyNTc4QzguODQ1NTIgNi42MTI0NCA4LjIwNDY3IDcuMjUzNiA3LjQwOTg4IDcuMjUzNkM2LjYxNTA5IDcuMjUzNiA1Ljk3NDI0IDYuNjEyNDQgNS45NzQyNCA1LjgyNTc4WiIgY2xpcC1ydWxlPSJldmVub2RkIiBmaWxsLXJ1bGU9ImV2ZW5vZGQiLz4mI3hhOzxwYXRoIGZpbGw9InVybCgjcGFpbnQyX2xpbmVhcl8zODkwXzIxNTIxKSIgZD0iTTEwLjU0OTYgNy41OTQwOUMxMC41ODY5IDcuMzU1MzYgMTAuODEwNyA3LjE5MjEgMTEuMDQ5NCA3LjIyOTQ0QzExLjkwNiA3LjM2MzM5IDEyLjc0ODMgNy43NzA1NyAxMy40NDEyIDguNDY3MjNDMTMuNjExNSA4LjYzODU1IDEzLjYxMDggOC45MTU1NiAxMy40Mzk1IDkuMDg1OTVDMTMuMjY4MSA5LjI1NjMzIDEyLjk5MTEgOS4yNTU1NyAxMi44MjA3IDkuMDg0MjVDMTIuMjYwMSA4LjUyMDU1IDExLjU4ODEgOC4xOTkzMiAxMC45MTQyIDguMDkzOTNDMTAuNjc1NSA4LjA1NjYgMTAuNTEyMyA3LjgzMjgxIDEwLjU0OTYgNy41OTQwOVoiIGNsaXAtcnVsZT0iZXZlbm9kZCIgZmlsbC1ydWxlPSJldmVub2RkIi8+JiN4YTs8cGF0aCBmaWxsPSJ1cmwoI3BhaW50M19saW5lYXJfMzg5MF8yMTUyMSkiIGQ9Ik0xMC45MzMyIDExLjMzMDFDMTAuOTMzMiAxMS4wODg1IDEwLjczNzQgMTAuODkyNiAxMC40OTU3IDEwLjg5MjZDMTAuMjU0MSAxMC44OTI2IDEwLjA1ODIgMTEuMDg4NSAxMC4wNTgyIDExLjMzMDFDMTAuMDU4MiAxMS42NzM3IDEwLjE1MDMgMTIuMDM5OCAxMC4zMzM3IDEyLjMzNjFDMTAuMzUyNiAxMi4zNjY2IDEwLjM3MTcgMTIuMzk3MSAxMC4zOTQ2IDEyLjQyNDVDMTAuNTM2OSAxMi41OTQ3IDEwLjc5NDEgMTIuNjMzMyAxMC45Nzk4IDEyLjUwNUMxMS4xNzc1IDEyLjM2ODQgMTEuMjI3OSAxMi4wOTgxIDExLjA5MzMgMTEuODk5NkMxMC45ODgxIDExLjczMzUgMTAuOTMzMiAxMS41MjU0IDEwLjkzMzIgMTEuMzMwMVoiLz4mI3hhOzxwYXRoIGZpbGw9InVybCgjcGFpbnQ0X2xpbmVhcl8zODkwXzIxNTIxKSIgZD0iTTEzLjI4NTEgMTEuMDU5OUMxMy4zMzExIDkuOTMzNjkgMTIuNDYzOSA4Ljk4OTU4IDExLjQ1NDQgOC42MTA0OEMxMC40MDg4IDguMjE3OCA5LjEwMDgyIDguMzc5NjYgOC4xOTU2MyA5LjU1NzM0QzguMDQ4MzggOS43NDg5MiA4LjA4NDMxIDEwLjAyMzYgOC4yNzU4OSAxMC4xNzA4QzguNDY3NDYgMTAuMzE4MSA4Ljc0MjEzIDEwLjI4MjEgOC44ODkzOCAxMC4wOTA2QzkuNTI2NTMgOS4yNjE2MiAxMC40MDczIDkuMTUxOTEgMTEuMTQ2OCA5LjQyOTYyQzExLjkyMjUgOS43MjA5MiAxMi40MzY4IDEwLjM4OTIgMTIuNDEwOCAxMS4wMjQyQzEyLjQwNiAxMS4xNDIyIDEyLjM2NjIgMTEuMjAyMSAxMi4zMzU3IDExLjIzMTlDMTIuMzAxMyAxMS4yNjU2IDEyLjI1NyAxMS4yODI2IDEyLjIxNDYgMTEuMjgzNEMxMi4xNzMyIDExLjI4NDIgMTIuMTQyIDExLjI2OTkgMTIuMTIxMyAxMS4yNDkxQzEyLjEwMzYgMTEuMjMxMyAxMi4wNjI3IDExLjE3NzYgMTIuMDYyNyAxMS4wNDIxQzEyLjA2MjcgMTAuNjY3OCAxMS44MjUzIDEwLjI2NjggMTEuNDgwOCAxMC4wMDgzQzExLjEwOTkgOS43Mjk5IDEwLjU4NTIgOS41ODc3NiA5Ljk2ODQ2IDkuNzU3OTJMOS45NTk0MyA5Ljc2MDQxTDkuOTUwNTIgOS43NjMyOUM5LjM1OTk4IDkuOTUzNzkgOC45ODMzIDEwLjUwNTggOC44OTg2NyAxMS4xNTA3QzguODEzMiAxMS44MDIxIDkuMDEzMzEgMTIuNTY4MyA5LjU2NTM4IDEzLjMxMzNDOS43MDkyNCAxMy41MDc0IDkuOTgzMjQgMTMuNTQ4MiAxMC4xNzc0IDEzLjQwNDNDMTAuMzcxNSAxMy4yNjA1IDEwLjQxMjMgMTIuOTg2NSAxMC4yNjg0IDEyLjc5MjNDOS44MjQ5NyAxMi4xOTQgOS43MTU1OSAxMS42NTA1IDkuNzY2MjMgMTEuMjY0NkM5LjgxNzAyIDEwLjg3NzYgMTAuMDE3MiAxMC42NjUyIDEwLjIxMTEgMTAuNTk4N0MxMC41NTc1IDEwLjUwNiAxMC43OTk4IDEwLjU5MTIgMTAuOTU1NSAxMC43MDgxQzExLjAzOSAxMC43NzA3IDExLjEwMDkgMTAuODQ1MiAxMS4xNDA1IDEwLjkxNDZDMTEuMTgyNSAxMC45ODY2IDExLjE4NiAxMS4wMjMyIDExLjE4ODQgMTEuMDg4QzExLjE5NzkgMTEuMzk3NSAxMS4zMDQ3IDExLjY2ODkgMTEuNTAxIDExLjg2NjJDMTEuNzA0IDEyLjA3MDIgMTEuOTcxOCAxMi4xNjMzIDEyLjIzMTUgMTIuMTU4MkMxMi43NjQxIDEyLjE0NzkgMTMuMjU3NyAxMS43MzIgMTMuMjg1MSAxMS4wNTk5WiIvPiYjeGE7PC9nPiYjeGE7PGRlZnM+JiN4YTs8bGluZWFyR3JhZGllbnQgZ3JhZGllbnRVbml0cz0idXNlclNwYWNlT25Vc2UiIHkyPSIxNC43NDU4IiB4Mj0iMTMuNjg0NCIgeTE9IjIuMjY4OTQiIHgxPSIxLjQ0NzUiIGlkPSJwYWludDBfbGluZWFyXzM4OTBfMjE1MjEiPiYjeGE7PHN0b3Agc3RvcC1jb2xvcj0id2hpdGUiLz4mI3hhOzxzdG9wIHN0b3AtY29sb3I9IiNFQUVDRUUiIG9mZnNldD0iMSIvPiYjeGE7PC9saW5lYXJHcmFkaWVudD4mI3hhOzxsaW5lYXJHcmFkaWVudCBncmFkaWVudFVuaXRzPSJ1c2VyU3BhY2VPblVzZSIgeTI9IjguODQ1NzQiIHgyPSIxMC4xMTEzIiB5MT0iNC42MzY4IiB4MT0iNC41MzM0MSIgaWQ9InBhaW50MV9saW5lYXJfMzg5MF8yMTUyMSI+JiN4YTs8c3RvcCBzdG9wLWNvbG9yPSIjMDE5NUZGIi8+JiN4YTs8c3RvcCBzdG9wLWNvbG9yPSIjMTE0N0U5IiBvZmZzZXQ9IjAuOTkxMDI4Ii8+JiN4YTs8L2xpbmVhckdyYWRpZW50PiYjeGE7PGxpbmVhckdyYWRpZW50IGdyYWRpZW50VW5pdHM9InVzZXJTcGFjZU9uVXNlIiB5Mj0iMTEuOTUyNSIgeDI9IjEzLjI1OTgiIHkxPSI4LjE0NjAyIiB4MT0iOC45MTI3MiIgaWQ9InBhaW50Ml9saW5lYXJfMzg5MF8yMTUyMSI+JiN4YTs8c3RvcCBzdG9wLWNvbG9yPSIjMTM0OEZGIi8+JiN4YTs8c3RvcCBzdG9wLWNvbG9yPSIjMDYyMzhEIiBvZmZzZXQ9IjEiLz4mI3hhOzwvbGluZWFyR3JhZGllbnQ+JiN4YTs8bGluZWFyR3JhZGllbnQgZ3JhZGllbnRVbml0cz0idXNlclNwYWNlT25Vc2UiIHkyPSIxMS45NTI1IiB4Mj0iMTMuMjU5OCIgeTE9IjguMTQ2MDIiIHgxPSI4LjkxMjcyIiBpZD0icGFpbnQzX2xpbmVhcl8zODkwXzIxNTIxIj4mI3hhOzxzdG9wIHN0b3AtY29sb3I9IiMxMzQ4RkYiLz4mI3hhOzxzdG9wIHN0b3AtY29sb3I9IiMwNjIzOEQiIG9mZnNldD0iMSIvPiYjeGE7PC9saW5lYXJHcmFkaWVudD4mI3hhOzxsaW5lYXJHcmFkaWVudCBncmFkaWVudFVuaXRzPSJ1c2VyU3BhY2VPblVzZSIgeTI9IjExLjk1MjUiIHgyPSIxMy4yNTk4IiB5MT0iOC4xNDYwMiIgeDE9IjguOTEyNzIiIGlkPSJwYWludDRfbGluZWFyXzM4OTBfMjE1MjEiPiYjeGE7PHN0b3Agc3RvcC1jb2xvcj0iIzEzNDhGRiIvPiYjeGE7PHN0b3Agc3RvcC1jb2xvcj0iIzA2MjM4RCIgb2Zmc2V0PSIxIi8+JiN4YTs8L2xpbmVhckdyYWRpZW50PiYjeGE7PGNsaXBQYXRoIGlkPSJjbGlwMF8zODkwXzIxNTIxIj4mI3hhOzxyZWN0IHRyYW5zZm9ybT0idHJhbnNsYXRlKDMuNTk2NjggMy4zOTc5NSkiIGZpbGw9IndoaXRlIiBoZWlnaHQ9IjEwIiB3aWR0aD0iMTAiLz4mI3hhOzwvY2xpcFBhdGg+JiN4YTs8L2RlZnM+JiN4YTs8L3N2Zz4=;points=[[0,0,0,0,0],[0,0.25,0,0,0],[0,0.5,0,0,0],[0,0.75,0,0,0],[0.25,0,0,0,0],[0.5,0,0,0,0],[0.75,0,0,0,0],[1,0,0,0,0],[1,0.25,0,0,0],[1,0.5,0,0,0],[1,0.75,0,0,0]];fontStyle=0;fontSize=12;fontColor=#1D2D3E" vertex="1" parent="i0-r0BhkWRjA8PmNq9u2-2">
          <mxGeometry x="72.53" y="70" width="50" height="50" as="geometry" />
        </mxCell>
        <mxCell id="f8Z3kIdqOoFyPufPkXmr-3" value="SAP Build &#xa;Process Automation" style="shape=image;verticalLabelPosition=bottom;verticalAlign=top;aspect=fixed;imageAspect=0;image=data:image/svg+xml,PHN2ZyB4bWxucz0iaHR0cDovL3d3dy53My5vcmcvMjAwMC9zdmciIGZpbGw9Im5vbmUiIHZpZXdCb3g9IjAgMCAxNiAxNiIgaGVpZ2h0PSIxNiIgd2lkdGg9IjE2Ij4mI3hhOzxnIGNsaXAtcGF0aD0idXJsKCNjbGlwMF8zMTA2XzI3MDY1KSI+JiN4YTs8Y2lyY2xlIHN0cm9rZS13aWR0aD0iMC4yNzM4OTMiIHN0cm9rZT0iI0Q1REFERCIgZmlsbD0idXJsKCNwYWludDBfbGluZWFyXzMxMDZfMjcwNjUpIiByPSI3LjUzMjA1IiBjeT0iOC4wMDAwNSIgY3g9IjcuOTk5MzIiLz4mI3hhOzxnIGNsaXAtcGF0aD0idXJsKCNjbGlwMV8zMTA2XzI3MDY1KSI+JiN4YTs8bWFzayBoZWlnaHQ9IjEyIiB3aWR0aD0iMTMiIHk9IjIiIHg9IjIiIG1hc2tVbml0cz0idXNlclNwYWNlT25Vc2UiIHN0eWxlPSJtYXNrLXR5cGU6YWxwaGEiIGlkPSJtYXNrMF8zMTA2XzI3MDY1Ij4mI3hhOzxwYXRoIGZpbGw9ImJsYWNrIiBkPSJNOS41MzU2MyA5LjM1MTM1QzEwLjUxMDMgOS4wNDIyMSAxMS4yMTU0IDguMTQxNyAxMS4yMTU0IDcuMDc4OThDMTEuMjE1NCA1Ljc2MDc3IDEwLjEzMDQgNC42OTIxNCA4Ljc5MjAzIDQuNjkyMTRMNy44NzM4OCA0LjY5MjE0QzYuNTU1NjggNC42OTIxNCA1LjQ4NzA2IDUuNzYwNzYgNS40ODcwNiA3LjA3ODk3VjkuOTQzMTdDNS40ODcwNiAxMC43MzQxIDYuMTI4MjMgMTEuMzc1MyA2LjkxOTE1IDExLjM3NTNDNy43MTAwOCAxMS4zNzUzIDguMzUxMjUgMTAuNzM0MSA4LjM1MTI1IDkuOTQzMTdMOC4zNTEyNSA3LjIzNjYyQzguMzUxMjUgNy4wNTIxNiA4LjYxNTY4IDcuMDIxNzkgOC42NTc0OSA3LjIwMTQ1TDkuMDg2NTEgOS4wNDQ5MUM5LjE0ODA0IDkuMzAwNzEgOS4zMDMwOSA5LjQyNTExIDkuNTM1NjMgOS4zNTEzNVoiLz4mI3hhOzwvbWFzaz4mI3hhOzxnIG1hc2s9InVybCgjbWFzazBfMzEwNl8yNzA2NSkiPiYjeGE7PGcgZmlsdGVyPSJ1cmwoI2ZpbHRlcjBfZF8zMTA2XzI3MDY1KSI+JiN4YTs8cGF0aCBmaWxsPSJ1cmwoI3BhaW50MV9yYWRpYWxfMzEwNl8yNzA2NSkiIGQ9Ik0xMy44NTA3IDQuMjM3MUMxMi45NDE0IDUuMDg3MjMgMTEuNTk5NiA1LjQxMTcxIDExLjQzODYgOS4yNTgyNEMxMS4yNzc2IDEzLjEwNDggNi42NDA5MyAxMS45MTQyIDUuNjU3MTEgMTEuNDc3OUMzLjkxNzAxIDEwLjcwNjIgMS4zOTI5NCA1LjYxNTYxIDQuMzAxMTggNC4wMjE1MkM3LjIwOTQyIDIuNDI3NDIgOS4wMDAyOSAxLjA5OTM5IDEwLjc0MDQgMS44NzExQzEyLjQ4MDUgMi42NDI4IDE0Ljc2IDMuMzg2OTcgMTMuODUwNyA0LjIzNzFaIi8+JiN4YTs8L2c+JiN4YTs8ZyBmaWx0ZXI9InVybCgjZmlsdGVyMV9kXzMxMDZfMjcwNjUpIj4mI3hhOzxwYXRoIGZpbGw9InVybCgjcGFpbnQyX3JhZGlhbF8zMTA2XzI3MDY1KSIgZD0iTTEzLjIwNjcgNi41NDU1OEMxMi4xNDgzIDYuNzg5NCA5LjkzOTM1IDUuNzY1MTcgOC4xMzQ2NSA4LjU5ODIyQzYuMzI5OTYgMTEuNDMxMyAzLjE0NTgzIDkuMTQzOTYgMi41OTQxMiA4LjM4NDEyQzEuNjE4MzEgNy4wNDAxNyAxLjc1NjggMi43NTE5MSA0LjY0OTU5IDIuODIxMjFDNy41NDIzOSAyLjg5MDUxIDEwLjc3ODEgMy4zMTU2MiAxMS43NTM5IDQuNjU5NTZDMTIuNzI5NyA2LjAwMzUgMTQuMjY1IDYuMzAxNzUgMTMuMjA2NyA2LjU0NTU4WiIvPiYjeGE7PC9nPiYjeGE7PGcgZmlsdGVyPSJ1cmwoI2ZpbHRlcjJfZF8zMTA2XzI3MDY1KSI+JiN4YTs8cGF0aCBmaWxsPSJ1cmwoI3BhaW50M19yYWRpYWxfMzEwNl8yNzA2NSkiIGQ9Ik0zLjU3OTA1IDkuMzAyODlDMi4yOTU4OSA4LjkzODcgMS41NTA5MiA3LjYwMzI3IDEuOTE1MTEgNi4zMjAxMUMyLjI3OTI5IDUuMDM2OTYgNC44OTE3NSAyLjQ2NjA5IDYuMTc0OTEgMi44MzAyN0M3LjQ1ODA2IDMuMTk0NDYgNy45Njk5NCA1LjYwNDEgNy42MDU3NSA2Ljg4NzI1QzcuMjQxNTcgOC4xNzA0MSA1LjIzOTU4IDkuNzc0MTggMy41NzkwNSA5LjMwMjg5WiIvPiYjeGE7PC9nPiYjeGE7PC9nPiYjeGE7PC9nPiYjeGE7PC9nPiYjeGE7PGRlZnM+JiN4YTs8ZmlsdGVyIGNvbG9yLWludGVycG9sYXRpb24tZmlsdGVycz0ic1JHQiIgZmlsdGVyVW5pdHM9InVzZXJTcGFjZU9uVXNlIiBoZWlnaHQ9IjExLjY5ODciIHdpZHRoPSIxMi40Mjk0IiB5PSIxLjAxNzUiIHg9IjIuNTI0OTgiIGlkPSJmaWx0ZXIwX2RfMzEwNl8yNzA2NSI+JiN4YTs8ZmVGbG9vZCByZXN1bHQ9IkJhY2tncm91bmRJbWFnZUZpeCIgZmxvb2Qtb3BhY2l0eT0iMCIvPiYjeGE7PGZlQ29sb3JNYXRyaXggcmVzdWx0PSJoYXJkQWxwaGEiIHZhbHVlcz0iMCAwIDAgMCAwIDAgMCAwIDAgMCAwIDAgMCAwIDAgMCAwIDAgMTI3IDAiIHR5cGU9Im1hdHJpeCIgaW49IlNvdXJjZUFscGhhIi8+JiN4YTs8ZmVPZmZzZXQgZHk9IjAuMDQ0ODQwNSIgZHg9IjAuMjI0MjAyIi8+JiN4YTs8ZmVHYXVzc2lhbkJsdXIgc3RkRGV2aWF0aW9uPSIwLjMzNjMwNCIvPiYjeGE7PGZlQ29tcG9zaXRlIG9wZXJhdG9yPSJvdXQiIGluMj0iaGFyZEFscGhhIi8+JiN4YTs8ZmVDb2xvck1hdHJpeCB2YWx1ZXM9IjAgMCAwIDAgMCAwIDAgMCAwIDAgMCAwIDAgMCAwIDAgMCAwIDAuNCAwIiB0eXBlPSJtYXRyaXgiLz4mI3hhOzxmZUJsZW5kIHJlc3VsdD0iZWZmZWN0MV9kcm9wU2hhZG93XzMxMDZfMjcwNjUiIGluMj0iQmFja2dyb3VuZEltYWdlRml4IiBtb2RlPSJub3JtYWwiLz4mI3hhOzxmZUJsZW5kIHJlc3VsdD0ic2hhcGUiIGluMj0iZWZmZWN0MV9kcm9wU2hhZG93XzMxMDZfMjcwNjUiIGluPSJTb3VyY2VHcmFwaGljIiBtb2RlPSJub3JtYWwiLz4mI3hhOzwvZmlsdGVyPiYjeGE7PGZpbHRlciBjb2xvci1pbnRlcnBvbGF0aW9uLWZpbHRlcnM9InNSR0IiIGZpbHRlclVuaXRzPSJ1c2VyU3BhY2VPblVzZSIgaGVpZ2h0PSI4LjUwMjIiIHdpZHRoPSIxMi44NjAxIiB5PSIyLjE5MjU1IiB4PSIxLjYwMDkxIiBpZD0iZmlsdGVyMV9kXzMxMDZfMjcwNjUiPiYjeGE7PGZlRmxvb2QgcmVzdWx0PSJCYWNrZ3JvdW5kSW1hZ2VGaXgiIGZsb29kLW9wYWNpdHk9IjAiLz4mI3hhOzxmZUNvbG9yTWF0cml4IHJlc3VsdD0iaGFyZEFscGhhIiB2YWx1ZXM9IjAgMCAwIDAgMCAwIDAgMCAwIDAgMCAwIDAgMCAwIDAgMCAwIDEyNyAwIiB0eXBlPSJtYXRyaXgiIGluPSJTb3VyY2VBbHBoYSIvPiYjeGE7PGZlT2Zmc2V0IGR5PSIwLjA0NDg0MDUiIGR4PSIwLjIyNDIwMiIvPiYjeGE7PGZlR2F1c3NpYW5CbHVyIHN0ZERldmlhdGlvbj0iMC4zMzYzMDQiLz4mI3hhOzxmZUNvbXBvc2l0ZSBvcGVyYXRvcj0ib3V0IiBpbjI9ImhhcmRBbHBoYSIvPiYjeGE7PGZlQ29sb3JNYXRyaXggdmFsdWVzPSIwIDAgMCAwIDAgMCAwIDAgMCAwIDAgMCAwIDAgMCAwIDAgMCAwLjQgMCIgdHlwZT0ibWF0cml4Ii8+JiN4YTs8ZmVCbGVuZCByZXN1bHQ9ImVmZmVjdDFfZHJvcFNoYWRvd18zMTA2XzI3MDY1IiBpbjI9IkJhY2tncm91bmRJbWFnZUZpeCIgbW9kZT0ibm9ybWFsIi8+JiN4YTs8ZmVCbGVuZCByZXN1bHQ9InNoYXBlIiBpbjI9ImVmZmVjdDFfZHJvcFNoYWRvd18zMTA2XzI3MDY1IiBpbj0iU291cmNlR3JhcGhpYyIgbW9kZT0ibm9ybWFsIi8+JiN4YTs8L2ZpbHRlcj4mI3hhOzxmaWx0ZXIgY29sb3ItaW50ZXJwb2xhdGlvbi1maWx0ZXJzPSJzUkdCIiBmaWx0ZXJVbml0cz0idXNlclNwYWNlT25Vc2UiIGhlaWdodD0iNy45MzY3NyIgd2lkdGg9IjcuMjQyNjgiIHk9IjIuMTY3NjQiIHg9IjEuMzc0MzUiIGlkPSJmaWx0ZXIyX2RfMzEwNl8yNzA2NSI+JiN4YTs8ZmVGbG9vZCByZXN1bHQ9IkJhY2tncm91bmRJbWFnZUZpeCIgZmxvb2Qtb3BhY2l0eT0iMCIvPiYjeGE7PGZlQ29sb3JNYXRyaXggcmVzdWx0PSJoYXJkQWxwaGEiIHZhbHVlcz0iMCAwIDAgMCAwIDAgMCAwIDAgMCAwIDAgMCAwIDAgMCAwIDAgMTI3IDAiIHR5cGU9Im1hdHJpeCIgaW49IlNvdXJjZUFscGhhIi8+JiN4YTs8ZmVPZmZzZXQgZHk9IjAuMDQ0ODQwNSIgZHg9IjAuMjI0MjAyIi8+JiN4YTs8ZmVHYXVzc2lhbkJsdXIgc3RkRGV2aWF0aW9uPSIwLjMzNjMwNCIvPiYjeGE7PGZlQ29tcG9zaXRlIG9wZXJhdG9yPSJvdXQiIGluMj0iaGFyZEFscGhhIi8+JiN4YTs8ZmVDb2xvck1hdHJpeCB2YWx1ZXM9IjAgMCAwIDAgMCAwIDAgMCAwIDAgMCAwIDAgMCAwIDAgMCAwIDAuNCAwIiB0eXBlPSJtYXRyaXgiLz4mI3hhOzxmZUJsZW5kIHJlc3VsdD0iZWZmZWN0MV9kcm9wU2hhZG93XzMxMDZfMjcwNjUiIGluMj0iQmFja2dyb3VuZEltYWdlRml4IiBtb2RlPSJub3JtYWwiLz4mI3hhOzxmZUJsZW5kIHJlc3VsdD0ic2hhcGUiIGluMj0iZWZmZWN0MV9kcm9wU2hhZG93XzMxMDZfMjcwNjUiIGluPSJTb3VyY2VHcmFwaGljIiBtb2RlPSJub3JtYWwiLz4mI3hhOzwvZmlsdGVyPiYjeGE7PGxpbmVhckdyYWRpZW50IGdyYWRpZW50VW5pdHM9InVzZXJTcGFjZU9uVXNlIiB5Mj0iMTQuNDY4OSIgeDI9IjEzLjQ1MjEiIHkxPSIyLjUwODA0IiB4MT0iMS43MjEyNCIgaWQ9InBhaW50MF9saW5lYXJfMzEwNl8yNzA2NSI+JiN4YTs8c3RvcCBzdG9wLWNvbG9yPSJ3aGl0ZSIvPiYjeGE7PHN0b3Agc3RvcC1jb2xvcj0iI0VBRUNFRSIgb2Zmc2V0PSIxIi8+JiN4YTs8L2xpbmVhckdyYWRpZW50PiYjeGE7PHJhZGlhbEdyYWRpZW50IGdyYWRpZW50VHJhbnNmb3JtPSJ0cmFuc2xhdGUoOC4zMzg3IDUuMjU4NzgpIHJvdGF0ZSg3OS4wOTY3KSBzY2FsZSgxMC45MDQ0IDEwLjA5OCkiIGdyYWRpZW50VW5pdHM9InVzZXJTcGFjZU9uVXNlIiByPSIxIiBjeT0iMCIgY3g9IjAiIGlkPSJwYWludDFfcmFkaWFsXzMxMDZfMjcwNjUiPiYjeGE7PHN0b3Agc3RvcC1jb2xvcj0iIzEzNDhGRiIvPiYjeGE7PHN0b3Agc3RvcC1jb2xvcj0iIzA2MjM4RCIgb2Zmc2V0PSIxIi8+JiN4YTs8L3JhZGlhbEdyYWRpZW50PiYjeGE7PHJhZGlhbEdyYWRpZW50IGdyYWRpZW50VHJhbnNmb3JtPSJ0cmFuc2xhdGUoOS4yNTAwNSAxLjYzODAyKSByb3RhdGUoMTA4LjU0OSkgc2NhbGUoMTQuMzUxOCAyNS40NykiIGdyYWRpZW50VW5pdHM9InVzZXJTcGFjZU9uVXNlIiByPSIxIiBjeT0iMCIgY3g9IjAiIGlkPSJwYWludDJfcmFkaWFsXzMxMDZfMjcwNjUiPiYjeGE7PHN0b3Agc3RvcC1jb2xvcj0iIzAxOTVGRiIvPiYjeGE7PHN0b3Agc3RvcC1jb2xvcj0iIzExNDdFOSIgb2Zmc2V0PSIxIi8+JiN4YTs8L3JhZGlhbEdyYWRpZW50PiYjeGE7PHJhZGlhbEdyYWRpZW50IGdyYWRpZW50VHJhbnNmb3JtPSJ0cmFuc2xhdGUoNy4xNDEzNiAzLjc4NzA2KSByb3RhdGUoMTQ0Ljc0Nikgc2NhbGUoOC43MDE2NSAxMS44MzcxKSIgZ3JhZGllbnRVbml0cz0idXNlclNwYWNlT25Vc2UiIHI9IjEiIGN5PSIwIiBjeD0iMCIgaWQ9InBhaW50M19yYWRpYWxfMzEwNl8yNzA2NSI+JiN4YTs8c3RvcCBzdG9wLWNvbG9yPSIjMDBCQkZGIi8+JiN4YTs8c3RvcCBzdG9wLWNvbG9yPSIjMDA4QkZGIiBvZmZzZXQ9IjEiLz4mI3hhOzwvcmFkaWFsR3JhZGllbnQ+JiN4YTs8Y2xpcFBhdGggaWQ9ImNsaXAwXzMxMDZfMjcwNjUiPiYjeGE7PHJlY3QgdHJhbnNmb3JtPSJ0cmFuc2xhdGUoLTAuMDAwNzMyNDIyKSIgZmlsbD0id2hpdGUiIGhlaWdodD0iMTYiIHdpZHRoPSIxNiIvPiYjeGE7PC9jbGlwUGF0aD4mI3hhOzxjbGlwUGF0aCBpZD0iY2xpcDFfMzEwNl8yNzA2NSI+JiN4YTs8cmVjdCB0cmFuc2Zvcm09InRyYW5zbGF0ZSgzLjQ5OTI3IDMuMTY2NzUpIiBmaWxsPSJ3aGl0ZSIgaGVpZ2h0PSI5LjY2NjY3IiB3aWR0aD0iOS42NjY2NiIvPiYjeGE7PC9jbGlwUGF0aD4mI3hhOzwvZGVmcz4mI3hhOzwvc3ZnPg==;points=[[0,0,0,0,0],[0,0.25,0,0,0],[0,0.5,0,0,0],[0,0.75,0,0,0],[0.25,0,0,0,0],[0.5,0,0,0,0],[0.75,0,0,0,0],[1,0,0,0,0],[1,0.25,0,0,0],[1,0.5,0,0,0],[1,0.75,0,0,0]];container=0;fontStyle=0;fontSize=12;fontColor=#1D2D3E" vertex="1" parent="i0-r0BhkWRjA8PmNq9u2-2">
          <mxGeometry x="233" y="183.06" width="50" height="50" as="geometry" />
        </mxCell>
        <mxCell id="iBaNymkaQX2o0GxHc3xv-6" value="Cloud &#xa;Integration" style="shape=image;verticalLabelPosition=bottom;verticalAlign=top;aspect=fixed;imageAspect=0;image=data:image/svg+xml,PHN2ZyB4bWxucz0iaHR0cDovL3d3dy53My5vcmcvMjAwMC9zdmciIGZpbGw9Im5vbmUiIHZpZXdCb3g9IjAgMCAxNiAxNiIgaGVpZ2h0PSIxNiIgd2lkdGg9IjE2Ij4mI3hhOzxjaXJjbGUgc3Ryb2tlLXdpZHRoPSIwLjI4NTcwOCIgc3Ryb2tlPSIjRDVEQUREIiBmaWxsPSJ1cmwoI3BhaW50MF9saW5lYXJfMzUxNF80MDI3MSkiIHI9IjcuODU2OTYiIGN5PSI3Ljk5NzYyIiBjeD0iNy45OTc2MiIvPiYjeGE7PGcgY2xpcC1wYXRoPSJ1cmwoI2NsaXAwXzM1MTRfNDAyNzEpIj4mI3hhOzxwYXRoIGZpbGw9InVybCgjcGFpbnQxX2xpbmVhcl8zNTE0XzQwMjcxKSIgZD0iTTcuMjYwOTUgMy4zOTc3MUM2LjAxNzkzIDMuMzk3NzEgNS4xMzQ3NyA0LjQwOTUzIDQuOTg3NjMgNS40NjU4OUM0LjU4Nzc5IDUuNDg5NjkgNC4yMzQ3MyA1LjYzOTk2IDMuOTYwNTEgNS44OTIzNkMzLjU4OTU1IDYuMjMzODEgMy4zOTc5NSA2LjcyOTQzIDMuMzk3OTUgNy4yNTIwOUMzLjM5Nzk1IDcuNzM3ODIgMy41NDUyOSA4LjE5Njk0IDMuODc2MDggOC41MzYzOUM0LjIwOTEgOC44NzgxMyA0LjY4MTg5IDkuMDUxMjQgNS4yMzg1OCA5LjA1MTI0SDYuMjE4NDFDNi4zMjIwOCA4LjQ4MTQyIDYuODIwOTIgOC4wNDkzOCA3LjQyMDY2IDguMDQ5MzhINy43NTc4NEM3Ljc2OTc0IDguMDQ5MzggNy43ODE2IDguMDQ5NTUgNy43OTM0MSA4LjA0OTg4QzcuNzc0NjQgNy45NjQ3NSA3Ljc2NDc0IDcuODc2MjkgNy43NjQ3NCA3Ljc4NTUxVjcuNDQ2NTFDNy43NjQ3NCA2Ljc3MTYgOC4zMTE4NyA2LjIyNDQ3IDguOTg2NzggNi4yMjQ0N0g5LjMyMzk1QzkuOTk4ODYgNi4yMjQ0NyAxMC41NDYgNi43NzE2IDEwLjU0NiA3LjQ0NjUxVjcuNzI5NDJDMTAuNzA3MyA3LjUzOTc2IDEwLjkyNTUgNy40IDExLjE3NDIgNy4zMzY1M0MxMS4xOTggNy4yMDI4NSAxMS4yMTA0IDcuMDYyNiAxMS4yMTA0IDYuOTE2MjJDMTEuMjEwNCA1Ljc1OTgzIDEwLjM4NCA0Ljg3MTE2IDkuMzg5MDEgNC43NzcxN0M4Ljk5MDE3IDMuOTUyNDIgOC4yNDk4MiAzLjM5NzcxIDcuMjYwOTUgMy4zOTc3MVoiLz4mI3hhOzxwYXRoIGZpbGw9InVybCgjcGFpbnQyX3JhZGlhbF8zNTE0XzQwMjcxKSIgZD0iTTkuMzIzNyA2LjcyNDYxQzkuNzIyNDcgNi43MjQ2MSAxMC4wNDU3IDcuMDQ3ODggMTAuMDQ1NyA3LjQ0NjY1VjcuNzg1NjVDMTAuMDQ1NyA4LjAwODk1IDkuOTQ0MzcgOC4yMDg1NyA5Ljc4NTE0IDguMzQxMDJMOS45NTIyMyA5LjAwMzY2SDkuOTc2MzNDMTAuMDQ2MSA5LjAwMzY2IDEwLjExMTggOS4wMjExIDEwLjE2OTMgOS4wNTE4N0wxMC43NTUgOC43NTQ2OFY4LjUyMDg3QzEwLjc1NSA4LjEyMjEgMTEuMDc4MyA3Ljc5ODgzIDExLjQ3NzEgNy43OTg4M0gxMS44MTQyQzEyLjIxMyA3Ljc5ODgzIDEyLjUzNjMgOC4xMjIxIDEyLjUzNjMgOC41MjA4N1Y4Ljg1OTg3QzEyLjUzNjMgOS4yNTg2NCAxMi4yMTMgOS41ODE5IDExLjgxNDIgOS41ODE5SDExLjQ3NzFDMTEuMjcwMiA5LjU4MTkgMTEuMDgzNyA5LjQ5NDkzIDEwLjk1MjEgOS4zNTU1NUwxMC4zODU5IDkuNjQyODFWOS43MTQ0TDEwLjM4NzggOS43MTE1MUwxMC44MTY4IDkuOTkyNjNDMTAuOTQwNSA5Ljg5MzIyIDExLjA5NzcgOS44MzM3NCAxMS4yNjg4IDkuODMzNzRIMTEuNzE5OEMxMi4xMTg2IDkuODMzNzQgMTIuNDQxOCAxMC4xNTcgMTIuNDQxOCAxMC41NTU4VjExLjAwODhDMTIuNDQxOCAxMS40MDc2IDEyLjExODYgMTEuNzMwOSAxMS43MTk4IDExLjczMDlIMTEuMjY4OEMxMC44NyAxMS43MzA5IDEwLjU0NjcgMTEuNDA3NiAxMC41NDY3IDExLjAwODhWMTAuNTYyOUwxMC4xNTk5IDEwLjMwOTRDMTAuMTA0NyAxMC4zMzcyIDEwLjA0MjMgMTAuMzUyOCA5Ljk3NjMzIDEwLjM1MjhIOS42NDI3NEw4Ljk3MzI1IDExLjI1MThDOS4wMjIwNCAxMS4zNDkgOS4wNDk1IDExLjQ1ODggOS4wNDk1IDExLjU3NTFWMTEuOTE0MUM5LjA0OTUgMTIuMzEyOCA4LjcyNjIzIDEyLjYzNjEgOC4zMjc0NiAxMi42MzYxSDcuOTkwMjlDNy41OTE1MiAxMi42MzYxIDcuMjY4MjUgMTIuMzEyOCA3LjI2ODI1IDExLjkxNDFMNy4yNjgyNSAxMS41NzUxQzcuMjY4MjUgMTEuMTc2MyA3LjU5MTUyIDEwLjg1MyA3Ljk5MDI5IDEwLjg1M0g4LjMyNzQ2QzguMzc5NDYgMTAuODUzIDguNDMwMTggMTAuODU4NSA4LjQ3OTA2IDEwLjg2OUw5LjA2MjI1IDEwLjA4NTlDOS4wNDU3NSAxMC4wNDE1IDkuMDM2NzQgOS45OTM0MSA5LjAzNjc0IDkuOTQzMjVWOS44MzczOUw4LjQ0MzQgOS44Mzc0QzguMzQ4MyAxMC4xMjUxIDguMDc3MjQgMTAuMzMyNiA3Ljc1NzcgMTAuMzMyNkg3LjQyMDUyQzcuMDIxNzUgMTAuMzMyNiA2LjY5ODQ5IDEwLjAwOTQgNi42OTg0OSA5LjYxMDZMNi42OTg0OSA5LjI3MTZDNi42OTg0OSA4Ljg3MjgzIDcuMDIxNzUgOC41NDk1NiA3LjQyMDUyIDguNTQ5NTZINy43NTc3QzguMTM2NTQgOC41NDk1NiA4LjQ0NzIzIDguODQxMzIgOC40NzczNCA5LjIxMjRMOS4wODkyNiA5LjIxMjM5QzkuMTM4MTUgOS4xMjU2NyA5LjIxNzcyIDkuMDU4NTUgOS4zMTMyNCA5LjAyNTc1TDkuMTgyNiA4LjUwNzY4SDguOTg2NTJDOC41ODc3NSA4LjUwNzY4IDguMjY0NDggOC4xODQ0MiA4LjI2NDQ4IDcuNzg1NjVWNy40NDY2NUM4LjI2NDQ4IDcuMDQ3ODggOC41ODc3NSA2LjcyNDYxIDguOTg2NTIgNi43MjQ2MUg5LjMyMzdaTTkuNDIwNzMgNy40NDY2NUM5LjQyMDczIDcuMzkzMDYgOS4zNzcyOSA3LjM0OTYxIDkuMzIzNyA3LjM0OTYxTDguOTg2NTIgNy4zNDk2MUM4LjkzMjkzIDcuMzQ5NjEgOC44ODk0OCA3LjM5MzA1IDguODg5NDggNy40NDY2NVY3Ljc4NTY1QzguODg5NDggNy44MzkyNCA4LjkzMjkzIDcuODgyNjggOC45ODY1MiA3Ljg4MjY4SDkuMzIzN0M5LjM3NzI5IDcuODgyNjggOS40MjA3MyA3LjgzOTI0IDkuNDIwNzMgNy43ODU2NVY3LjQ0NjY1Wk0xMS45MTEzIDguNTIwODdDMTEuOTExMyA4LjQ2NzI3IDExLjg2NzggOC40MjM4MyAxMS44MTQyIDguNDIzODNIMTEuNDc3MUMxMS40MjM1IDguNDIzODMgMTEuMzggOC40NjcyNyAxMS4zOCA4LjUyMDg3VjguODU5ODZDMTEuMzggOC45MTM0NiAxMS40MjM1IDguOTU2OSAxMS40NzcxIDguOTU2OUgxMS44MTQyQzExLjg2NzggOC45NTY5IDExLjkxMTMgOC45MTM0NiAxMS45MTEzIDguODU5ODZWOC41MjA4N1pNMTEuODE2OCAxMC41NTU4QzExLjgxNjggMTAuNTAyMiAxMS43NzM0IDEwLjQ1ODcgMTEuNzE5OCAxMC40NTg3SDExLjI2ODhDMTEuMjE1MiAxMC40NTg3IDExLjE3MTcgMTAuNTAyMiAxMS4xNzE3IDEwLjU1NThWMTEuMDA4OEMxMS4xNzE3IDExLjA2MjQgMTEuMjE1MiAxMS4xMDU5IDExLjI2ODggMTEuMTA1OUgxMS43MTk4QzExLjc3MzQgMTEuMTA1OSAxMS44MTY4IDExLjA2MjQgMTEuODE2OCAxMS4wMDg4VjEwLjU1NThaTTcuNzU3NyA5LjE3NDU2QzcuODExMjkgOS4xNzQ1NiA3Ljg1NDc0IDkuMjE4MDEgNy44NTQ3NCA5LjI3MTZWOS42MTA2QzcuODU0NzQgOS42NjQxOSA3LjgxMTI5IDkuNzA3NjQgNy43NTc3IDkuNzA3NjRINy40MjA1MkM3LjM2NjkzIDkuNzA3NjQgNy4zMjM0OSA5LjY2NDE5IDcuMzIzNDkgOS42MTA2VjkuMjcxNkM3LjMyMzQ5IDkuMjE4MDEgNy4zNjY5MyA5LjE3NDU2IDcuNDIwNTIgOS4xNzQ1Nkg3Ljc1NzdaTTguNDI0NSAxMS41NzUxQzguNDI0NSAxMS41MjE1IDguMzgxMDUgMTEuNDc4IDguMzI3NDYgMTEuNDc4SDcuOTkwMjlDNy45MzY2OSAxMS40NzggNy44OTMyNSAxMS41MjE1IDcuODkzMjUgMTEuNTc1MVYxMS45MTQxQzcuODkzMjUgMTEuOTY3NyA3LjkzNjcgMTIuMDExMSA3Ljk5MDI5IDEyLjAxMTFIOC4zMjc0NkM4LjM4MTA1IDEyLjAxMTEgOC40MjQ1IDExLjk2NzcgOC40MjQ1IDExLjkxNDFWMTEuNTc1MVoiIGNsaXAtcnVsZT0iZXZlbm9kZCIgZmlsbC1ydWxlPSJldmVub2RkIi8+JiN4YTs8L2c+JiN4YTs8ZGVmcz4mI3hhOzxsaW5lYXJHcmFkaWVudCBncmFkaWVudFVuaXRzPSJ1c2VyU3BhY2VPblVzZSIgeTI9IjE0Ljc0NTYiIHgyPSIxMy42ODU2IiB5MT0iMi4yNjg3IiB4MT0iMS40NDg3MyIgaWQ9InBhaW50MF9saW5lYXJfMzUxNF80MDI3MSI+JiN4YTs8c3RvcCBzdG9wLWNvbG9yPSJ3aGl0ZSIvPiYjeGE7PHN0b3Agc3RvcC1jb2xvcj0iI0VBRUNFRSIgb2Zmc2V0PSIxIi8+JiN4YTs8L2xpbmVhckdyYWRpZW50PiYjeGE7PGxpbmVhckdyYWRpZW50IGdyYWRpZW50VW5pdHM9InVzZXJTcGFjZU9uVXNlIiB5Mj0iOS40NDA1IiB4Mj0iOC4zMjg4NCIgeTE9IjQuMjQzMTYiIHgxPSI0LjU2OTA4IiBpZD0icGFpbnQxX2xpbmVhcl8zNTE0XzQwMjcxIj4mI3hhOzxzdG9wIHN0b3AtY29sb3I9IiMwMTk1RkYiLz4mI3hhOzxzdG9wIHN0b3AtY29sb3I9IiMxMTQ3RTkiIG9mZnNldD0iMC45OTEwMjgiLz4mI3hhOzwvbGluZWFyR3JhZGllbnQ+JiN4YTs8cmFkaWFsR3JhZGllbnQgZ3JhZGllbnRUcmFuc2Zvcm09InRyYW5zbGF0ZSg3LjYwMjQ2IDcuNjEzOSkgcm90YXRlKDQ1LjM1OTQpIHNjYWxlKDUuNzg3MjQgNS4yNzMyOCkiIGdyYWRpZW50VW5pdHM9InVzZXJTcGFjZU9uVXNlIiByPSIxIiBjeT0iMCIgY3g9IjAiIGlkPSJwYWludDJfcmFkaWFsXzM1MTRfNDAyNzEiPiYjeGE7PHN0b3Agc3RvcC1jb2xvcj0iIzEzNDhGRiIvPiYjeGE7PHN0b3Agc3RvcC1jb2xvcj0iIzA2MjM4RCIgb2Zmc2V0PSIxIi8+JiN4YTs8L3JhZGlhbEdyYWRpZW50PiYjeGE7PGNsaXBQYXRoIGlkPSJjbGlwMF8zNTE0XzQwMjcxIj4mI3hhOzxyZWN0IHRyYW5zZm9ybT0idHJhbnNsYXRlKDMuMzk3NzEgMy4zOTc3MSkiIGZpbGw9IndoaXRlIiBoZWlnaHQ9IjEwIiB3aWR0aD0iMTAiLz4mI3hhOzwvY2xpcFBhdGg+JiN4YTs8L2RlZnM+JiN4YTs8L3N2Zz4=;points=[[0,0,0,0,0],[0,0.25,0,0,0],[0,0.5,0,0,0],[0,0.75,0,0,0],[0.25,0,0,0,0],[0.5,0,0,0,0],[0.75,0,0,0,0],[1,0,0,0,0],[1,0.25,0,0,0],[1,0.5,0,0,0],[1,0.75,0,0,0]];container=0;fontStyle=0;fontSize=12;fontColor=#1D2D3E;" vertex="1" parent="i0-r0BhkWRjA8PmNq9u2-2">
          <mxGeometry x="91" y="445.65" width="53.06" height="53.06" as="geometry" />
        </mxCell>
        <mxCell id="i0-r0BhkWRjA8PmNq9u2-46" style="edgeStyle=none;rounded=0;orthogonalLoop=1;jettySize=auto;html=1;fontColor=#BFBFBF;fontSize=13;strokeColor=#A3A3A3;endSize=5;strokeWidth=2;endArrow=blockThin;endFill=1;exitX=1;exitY=0.5;exitDx=0;exitDy=0;entryX=0;entryY=0.5;entryDx=0;entryDy=0;" parent="1" source="i0-r0BhkWRjA8PmNq9u2-54" target="i0-r0BhkWRjA8PmNq9u2-30" edge="1">
          <mxGeometry relative="1" as="geometry">
            <mxPoint x="654" y="351" as="sourcePoint" />
            <mxPoint x="663.41" y="280" as="targetPoint" />
          </mxGeometry>
        </mxCell>
        <mxCell id="i0-r0BhkWRjA8PmNq9u2-53" value="Firewall" style="text;strokeColor=none;align=center;fillColor=none;html=1;verticalAlign=middle;whiteSpace=wrap;rounded=0;fontStyle=1" parent="1" vertex="1">
          <mxGeometry x="390" y="-10" width="60" height="30" as="geometry" />
        </mxCell>
        <mxCell id="i0-r0BhkWRjA8PmNq9u2-64" style="edgeStyle=orthogonalEdgeStyle;rounded=0;orthogonalLoop=1;jettySize=auto;html=1;exitX=1;exitY=0.5;exitDx=0;exitDy=0;entryX=0;entryY=0.5;entryDx=0;entryDy=0;entryPerimeter=0;strokeWidth=2;strokeColor=#A3A3A3;endArrow=blockThin;endFill=1;startArrow=blockThin;startFill=1;" parent="1" source="i0-r0BhkWRjA8PmNq9u2-21" target="i0-r0BhkWRjA8PmNq9u2-15" edge="1">
          <mxGeometry relative="1" as="geometry">
            <mxPoint x="-61" y="494.47" as="sourcePoint" />
            <mxPoint x="119" y="494.47" as="targetPoint" />
          </mxGeometry>
        </mxCell>
        <mxCell id="f8Z3kIdqOoFyPufPkXmr-2" value="Event Mesh" style="shape=image;verticalLabelPosition=bottom;verticalAlign=top;aspect=fixed;imageAspect=0;image=data:image/svg+xml,PHN2ZyB4bWxucz0iaHR0cDovL3d3dy53My5vcmcvMjAwMC9zdmciIGZpbGw9Im5vbmUiIHZpZXdCb3g9IjAgMCAxNiAxNiIgaGVpZ2h0PSIxNiIgd2lkdGg9IjE2Ij4mI3hhOzxjaXJjbGUgc3Ryb2tlLXdpZHRoPSIwLjI4NTcwOCIgc3Ryb2tlPSIjRDVEQUREIiBmaWxsPSJ1cmwoI3BhaW50MF9saW5lYXJfMzUxNF80MDIyNSkiIHI9IjcuODU2OTYiIGN5PSI3Ljk5ODg0IiBjeD0iNy45OTY4OSIvPiYjeGE7PGcgY2xpcC1wYXRoPSJ1cmwoI2NsaXAwXzM1MTRfNDAyMjUpIj4mI3hhOzxwYXRoIGZpbGw9InVybCgjcGFpbnQxX2xpbmVhcl8zNTE0XzQwMjI1KSIgZD0iTTcuNTE3NTEgMy44NTg0QzYuMTkxNjMgMy44NTg0IDUuMjQ5NTkgNC45MzkwNSA1LjA5MjY0IDYuMDY3MjdDNC42NjYxNCA2LjA5MjY4IDQuMjg5NTQgNi4yNTMxNyAzLjk5NzA0IDYuNTIyNzRDMy42MDEzNSA2Ljg4NzQyIDMuMzk2OTcgNy40MTY3NSAzLjM5Njk3IDcuOTc0OTZDMy4zOTY5NyA4LjQ5MzczIDMuNTU0MTQgOC45ODQwOCAzLjkwNjk4IDkuMzQ2NjJDNC4yNjIyIDkuNzExNiA0Ljc2NjUxIDkuODk2NDkgNS4zNjAzMiA5Ljg5NjQ5SDYuNDkwMDNWOS4yMTcyNUM2LjQ5MDAzIDguNTYwOTIgNy4wMTg5NyA4LjAxOTY1IDcuNjgyNzYgOC4wMTk2NUM4LjIwMDk3IDguMDE5NjUgOC42NTYwMiA4LjM1NDcgOC44MTU5MyA4Ljg0MzUyTDguODQxMTMgOC45MjA1OEw4Ljg2NDQxIDguODQ3ODdDOS4wMjE0NyA4LjM1NzE0IDkuNDc2NjggOC4wMTk2NSA5Ljk5NTkxIDguMDE5NjVDMTAuNjMyOSA4LjAxOTY1IDExLjE0NTMgOC41MTk4NyAxMS4xODIzIDkuMTQwOTVDMTEuNTE5NSA4Ljc1NjE2IDExLjczMDMgOC4yMzc5NiAxMS43MzAzIDcuNjE2MjVDMTEuNzMwMyA2LjM4MTIgMTAuODQ4OCA1LjQzMjA4IDkuNzg3NDYgNS4zMzE3QzkuMzYyMDMgNC40NTA4NSA4LjU3MjMxIDMuODU4NCA3LjUxNzUxIDMuODU4NFoiLz4mI3hhOzxwYXRoIGZpbGw9InVybCgjcGFpbnQyX2xpbmVhcl8zNTE0XzQwMjI1KSIgZD0iTTExLjgyNzcgMTIuNDY1OEMxMS42ODEyIDEyLjYxNDggMTEuNTM2NCAxMi44NDU4IDExLjY4MyAxMi45OTQ4QzExLjgyOTUgMTMuMTQzOCAxMS45OTU3IDEzLjE1NDMgMTIuMTQyMiAxMy4wMDUyTDEzLjI2NyAxMS44NjEyQzEzLjQxMzUgMTEuNzEyMiAxMy40MTM1IDExLjQ3MDggMTMuMjY3IDExLjMyMThMMTIuMTQyMiAxMC4xNzc3QzExLjk5NTcgMTAuMDI4NyAxMS44MjM1IDkuOTY2NjQgMTEuNjc3IDEwLjExNTdDMTEuNDkzOCAxMC4yNTg3IDExLjc0ODkgMTAuNTY4MSAxMS44OTU0IDEwLjcxNzFMMTIuMzE1MyAxMS4yMTg0TDEwLjAwMjkgMTEuMjIwOEwxMC4wMDI4IDExLjUxNzVDMTAuMDAyNiAxMS43MjIyIDEwLjE2NzIgMTEuODg4IDEwLjM3MDEgMTEuODg3OEwxMi4zNTY3IDExLjg4NTdMMTEuODI3NyAxMi40NjU4WiIvPiYjeGE7PHBhdGggZmlsbD0idXJsKCNwYWludDNfbGluZWFyXzM1MTRfNDAyMjUpIiBkPSJNNy4xNTc0NyA5LjI0ODg3QzcuMTU3NDcgOC45MzE1NSA3LjQxMjUxIDguNjc0MzIgNy43MjcxMSA4LjY3NDMyQzcuOTcyOTUgOC42NzQzMiA4LjE5MTA1IDguODMzMzggOC4yNjgwNyA5LjA2ODg0TDguNzM1MjcgMTAuNDk3QzguNzYxMjcgMTAuNTc1NyA4Ljc5MTg0IDEwLjY4NTkgOC44MjcwMSAxMC44Mjc4QzguODYyMTcgMTAuOTY5NyA4Ljg4NTExIDExLjA2MzcgOC44OTU4MSAxMS4xMUM4LjkwODA0IDExLjA2MzcgOC45MzI1IDEwLjk3MTIgOC45NjkxOSAxMC44MzI0QzkuMDA3NDIgMTAuNjkyMSA5LjAzOTUyIDEwLjU4NDEgOS4wNjU1MSAxMC41MDg2TDkuNTI2MTYgOS4wNjkzN0M5LjYwMTUzIDguODMzOSA5LjgxODg2IDguNjc0MzIgMTAuMDY0MiA4LjY3NDMyQzEwLjM3NjQgOC42NzQzMiAxMC42Mjk2IDguOTI5NjIgMTAuNjI5NiA5LjI0NDU2VjExLjIyMDJMMTAuMDAyOSAxMS4yMjA4TDEwLjAwMzUgOS45NTgwOEMxMC4wMDM1IDkuNzkxNTMgMTAuMDA3MyA5LjYzNDI0IDEwLjAxNDkgOS40ODYyMUMxMC4wMjQxIDkuMzM4MTcgMTAuMDIwNCA5LjI3OTMxIDEwLjAyODcgOS4yNTI1OUMxMC4wMjcyIDkuMjU0MTMgMTAuMDExOSA5LjMwODEgOS45ODI4NCA5LjQxNDVDOS45Njc1NSA5LjQ2NTM5IDkuOTM1NDUgOS41NzQ4OCA5Ljg4NjUyIDkuNzQyOTZDOS44MzkxMyA5LjkxMTA0IDkuODAxNjcgMTAuMDM1MiA5Ljc3NDE1IDEwLjExNTRMOS4yNTYzNCAxMS42NzAzQzkuMjAzOTggMTEuODI3NSA5LjA1NzkzIDExLjkzMzQgOC44OTM1MSAxMS45MzM0QzguNzI5MDkgMTEuOTMzNCA4LjU4MzA0IDExLjgyNzUgOC41MzA2OSAxMS42NzAzTDguMDEyODggMTAuMTE1NEM3Ljk4MDc3IDEwLjAyMTMgNy45MzQ5MSA5Ljg3NDAzIDcuODc1MjggOS42NzM1N0M3LjgxNzE4IDkuNDcxNTYgNy43NzY2NyA5LjMzMTIzIDcuNzUzNzMgOS4yNTI1OUw3Ljc1ODMyIDkuMzE5NjdDNy43NTk4NSA5LjM0NDM0IDcuNzY0NDQgOS40MzE0NiA3Ljc3MjA4IDkuNTgxMDRDNy43Nzk3MiA5LjcyOTA4IDcuNzgzNTUgOS44NTQ3NiA3Ljc4MzU1IDkuOTU4MDhWMTEuNjE3N0M3Ljc4MzU1IDExLjc5MjEgNy42NDM0IDExLjkzMzQgNy40NzA1MSAxMS45MzM0QzcuMjk3NjIgMTEuOTMzNCA3LjE1NzQ3IDExLjc5MjEgNy4xNTc0NyAxMS42MTc3VjkuMjQ4ODdaIi8+JiN4YTs8L2c+JiN4YTs8ZGVmcz4mI3hhOzxsaW5lYXJHcmFkaWVudCBncmFkaWVudFVuaXRzPSJ1c2VyU3BhY2VPblVzZSIgeTI9IjE0Ljc0NjgiIHgyPSIxMy42ODQ5IiB5MT0iMi4yNjk5MiIgeDE9IjEuNDQ3OTkiIGlkPSJwYWludDBfbGluZWFyXzM1MTRfNDAyMjUiPiYjeGE7PHN0b3Agc3RvcC1jb2xvcj0id2hpdGUiLz4mI3hhOzxzdG9wIHN0b3AtY29sb3I9IiNFQUVDRUUiIG9mZnNldD0iMSIvPiYjeGE7PC9saW5lYXJHcmFkaWVudD4mI3hhOzxsaW5lYXJHcmFkaWVudCBncmFkaWVudFVuaXRzPSJ1c2VyU3BhY2VPblVzZSIgeTI9IjEwLjMwNzQiIHgyPSI4LjY2MzI3IiB5MT0iNC43NjEzNiIgeDE9IjQuNjQ2MTgiIGlkPSJwYWludDFfbGluZWFyXzM1MTRfNDAyMjUiPiYjeGE7PHN0b3Agc3RvcC1jb2xvcj0iIzAxOTVGRiIvPiYjeGE7PHN0b3Agc3RvcC1jb2xvcj0iIzExNDdFOSIgb2Zmc2V0PSIwLjk5MTAyOCIvPiYjeGE7PC9saW5lYXJHcmFkaWVudD4mI3hhOzxsaW5lYXJHcmFkaWVudCBncmFkaWVudFVuaXRzPSJ1c2VyU3BhY2VPblVzZSIgeTI9IjEzLjQ1NSIgeDI9IjExLjAwOTYiIHkxPSI5LjMyNzE5IiB4MT0iOC4wNzY5NyIgaWQ9InBhaW50Ml9saW5lYXJfMzUxNF80MDIyNSI+JiN4YTs8c3RvcCBzdG9wLWNvbG9yPSIjMTM0OEZGIi8+JiN4YTs8c3RvcCBzdG9wLWNvbG9yPSIjMDYyMzhEIiBvZmZzZXQ9IjEiLz4mI3hhOzwvbGluZWFyR3JhZGllbnQ+JiN4YTs8bGluZWFyR3JhZGllbnQgZ3JhZGllbnRVbml0cz0idXNlclNwYWNlT25Vc2UiIHkyPSIxMy40NTUiIHgyPSIxMS4wMDk2IiB5MT0iOS4zMjcxOSIgeDE9IjguMDc2OTciIGlkPSJwYWludDNfbGluZWFyXzM1MTRfNDAyMjUiPiYjeGE7PHN0b3Agc3RvcC1jb2xvcj0iIzEzNDhGRiIvPiYjeGE7PHN0b3Agc3RvcC1jb2xvcj0iIzA2MjM4RCIgb2Zmc2V0PSIxIi8+JiN4YTs8L2xpbmVhckdyYWRpZW50PiYjeGE7PGNsaXBQYXRoIGlkPSJjbGlwMF8zNTE0XzQwMjI1Ij4mI3hhOzxyZWN0IHRyYW5zZm9ybT0idHJhbnNsYXRlKDMuMzk2OTcgMy43OTkwNykiIGZpbGw9IndoaXRlIiBoZWlnaHQ9IjEwLjAwMDIiIHdpZHRoPSIxMCIvPiYjeGE7PC9jbGlwUGF0aD4mI3hhOzwvZGVmcz4mI3hhOzwvc3ZnPg==;points=[[0,0,0,0,0],[0,0.25,0,0,0],[0,0.5,0,0,0],[0,0.75,0,0,0],[0.25,0,0,0,0],[0.5,0,0,0,0],[0.75,0,0,0,0],[1,0,0,0,0],[1,0.25,0,0,0],[1,0.5,0,0,0],[1,0.75,0,0,0]];container=0;fontStyle=0;fontSize=12;fontColor=#1D2D3E;" vertex="1" parent="1">
          <mxGeometry x="-330" y="-12" width="32" height="32" as="geometry" />
        </mxCell>
        <mxCell id="f8Z3kIdqOoFyPufPkXmr-4" value="SAP Integration Suite" style="shape=image;verticalLabelPosition=bottom;verticalAlign=top;aspect=fixed;imageAspect=0;image=data:image/svg+xml,PHN2ZyB4bWxucz0iaHR0cDovL3d3dy53My5vcmcvMjAwMC9zdmciIGZpbGw9Im5vbmUiIHZpZXdCb3g9IjAgMCAxNiAxNiIgaGVpZ2h0PSIxNiIgd2lkdGg9IjE2Ij4mI3hhOzxjaXJjbGUgc3Ryb2tlLXdpZHRoPSIwLjI4NTcwOCIgc3Ryb2tlPSIjRDVEQUREIiBmaWxsPSJ1cmwoI3BhaW50MF9saW5lYXJfMzUxNF80MDI2OCkiIHI9IjcuODU2OTYiIGN5PSI3Ljk5NzYyIiBjeD0iNy45OTg4NCIvPiYjeGE7PGcgY2xpcC1wYXRoPSJ1cmwoI2NsaXAwXzM1MTRfNDAyNjgpIj4mI3hhOzxwYXRoIGZpbGw9InVybCgjcGFpbnQxX2xpbmVhcl8zNTE0XzQwMjY4KSIgZD0iTTcuOTQ5NTggMi44OTc3MUM2LjQyNzE1IDIuODk3NzEgNS4yNzc5NSAzLjk2MDAxIDQuOTEzNDkgNS4yMDYwOEM0LjUxMDcgNS4yOTI5NiA0LjE0MjEzIDUuNDc0NDUgMy44MzI3NyA1Ljc0NTc3QzMuMjc3NDcgNi4yMzI3OSAyLjk5OTAyIDYuOTM0MTMgMi45OTkwMiA3LjY1MzAxQzIuOTk5MDIgOC4zMDY1NCAzLjIwOTcgOC45NjQzNCAzLjcxNDYyIDkuNDU4MDNDNC4xMSA5Ljg0NDYzIDQuNjE1OTMgMTAuMDYyNSA1LjE2OTczIDEwLjEzODZWMTAuMDI0MkM1LjE2OTczIDkuNzIwMzUgNS4yODA2NCA5LjQ0MjM4IDUuNDY0MiA5LjIyODU5QzQuOTYzODYgOS4wNzU2MSA0LjU5OTk2IDguNjEwMTkgNC41OTk5NiA4LjA1OTc3VjcuNzIwNzdDNC41OTk5NiA3LjA0NTg1IDUuMTQ3MDkgNi40OTg3MyA1LjgyMiA2LjQ5ODczSDYuMTU5MTdDNi4xNzEwNyA2LjQ5ODczIDYuMTgyOTMgNi40OTg5IDYuMTk0NzUgNi40OTkyNEM2LjE3NTk3IDYuNDE0MTEgNi4xNjYwOCA2LjMyNTY0IDYuMTY2MDggNi4yMzQ4NlY1Ljg5NTg3QzYuMTY2MDggNS4yMjA5NSA2LjcxMzIgNC42NzM4MyA3LjM4ODExIDQuNjczODNINy43MjUyOUM4LjQwMDIgNC42NzM4MyA4Ljk0NzMzIDUuMjIwOTUgOC45NDczMyA1Ljg5NTg3VjYuMTc4NzdDOS4xNzE0OCA1LjkxNTIxIDkuNTA1NTMgNS43NDgwMSA5Ljg3ODYzIDUuNzQ4MDFIMTAuMjE1OEMxMC44OTA3IDUuNzQ4MDEgMTEuNDM3OCA2LjI5NTEzIDExLjQzNzggNi45NzAwNFY3LjMwOTA0QzExLjQzNzggNy42NjM0OCAxMS4yODY5IDcuOTgyNjggMTEuMDQ1OSA4LjIwNTg5QzExLjIzMTIgOC40MjAxMyAxMS4zNDMzIDguNjk5NDUgMTEuMzQzMyA5LjAwNDk1VjkuNDU4QzExLjM0MzMgOS42MjU1NiAxMS4zMDk2IDkuNzg1MjQgMTEuMjQ4NiA5LjkzMDYzQzEyLjIzNDEgOS41MTg2OSAxMi45OTkgOC41OTgwOSAxMi45OTkgNy4yODcyQzEyLjk5OSA1LjgyNDczIDExLjk3ODYgNC42OTQ1NyAxMC43MTMxIDQuNDQzNDlDMTAuMTQzOCAzLjUxNDMgOS4xODIzIDIuODk3NzEgNy45NDk1OCAyLjg5NzcxWiIvPiYjeGE7PHBhdGggZmlsbD0idXJsKCNwYWludDJfcmFkaWFsXzM1MTRfNDAyNjgpIiBkPSJNNy43MjUzMSA1LjE3MTg4QzguMTI0MDggNS4xNzE4OCA4LjQ0NzM0IDUuNDk1MTQgOC40NDczNCA1Ljg5MzkxVjYuMjMyOTFDOC40NDczNCA2LjQ1NjIxIDguMzQ1OTggNi42NTU4NCA4LjE4Njc1IDYuNzg4MjhMOC4zNTM4NCA3LjQ1MDkzSDguMzc3OTRDOC40NDc3IDcuNDUwOTMgOC41MTMzOSA3LjQ2ODM3IDguNTcwODggNy40OTkxM0w5LjE1NjYzIDcuMjAxOTVWNi45NjgxM0M5LjE1NjYzIDYuNTY5MzYgOS40Nzk5IDYuMjQ2MDkgOS44Nzg2NyA2LjI0NjA5SDEwLjIxNThDMTAuNjE0NiA2LjI0NjA5IDEwLjkzNzkgNi41NjkzNiAxMC45Mzc5IDYuOTY4MTNWNy4zMDcxM0MxMC45Mzc5IDcuNzA1OSAxMC42MTQ2IDguMDI5MTcgMTAuMjE1OCA4LjAyOTE3SDkuODc4NjdDOS42NzE4MyA4LjAyOTE3IDkuNDg1MyA3Ljk0MjE5IDkuMzUzNjYgNy44MDI4Mkw4Ljc4NzQ4IDguMDkwMDhWOC4xNjE2Nkw4Ljc4OTM3IDguMTU4NzhMOS4yMTg0MyA4LjQzOTlDOS4zNDIxNSA4LjM0MDQ5IDkuNDk5MzEgOC4yODEwMSA5LjY3MDM2IDguMjgxMDFIMTAuMTIxNEMxMC41MjAyIDguMjgxMDEgMTAuODQzNCA4LjYwNDI3IDEwLjg0MzQgOS4wMDMwNFY5LjQ1NjA5QzEwLjg0MzQgOS44NTQ4NiAxMC41MjAyIDEwLjE3ODEgMTAuMTIxNCAxMC4xNzgxSDkuNjcwMzZDOS4yNzE1OSAxMC4xNzgxIDguOTQ4MzMgOS44NTQ4NiA4Ljk0ODMzIDkuNDU2MDlWOS4wMTAxM0w4LjU2MTUzIDguNzU2N0M4LjUwNjMxIDguNzg0NDQgOC40NDM5NSA4LjgwMDA2IDguMzc3OTQgOC44MDAwNkg4LjA0NDM1TDcuMzc0ODYgOS42OTkwNEM3LjQyMzY1IDkuNzk2MyA3LjQ1MTExIDkuOTA2MTEgNy40NTExMSAxMC4wMjIzVjEwLjM2MTNDNy40NTExMSAxMC43NjAxIDcuMTI3ODQgMTEuMDgzNCA2LjcyOTA3IDExLjA4MzRINi4zOTE5QzUuOTkzMTMgMTEuMDgzNCA1LjY2OTg2IDEwLjc2MDEgNS42Njk4NiAxMC4zNjEzTDUuNjY5ODYgMTAuMDIyM0M1LjY2OTg2IDkuNjIzNTYgNS45OTMxMyA5LjMwMDI5IDYuMzkxOSA5LjMwMDI5SDYuNzI5MDdDNi43ODEwNyA5LjMwMDI5IDYuODMxNzkgOS4zMDU3OSA2Ljg4MDY3IDkuMzE2MjNMNy40NjM4NiA4LjUzMzEzQzcuNDQ3MzYgOC40ODg3MiA3LjQzODM1IDguNDQwNjcgNy40MzgzNSA4LjM5MDUyVjguMjg0NjZMNi44NDUwMSA4LjI4NDY2QzYuNzQ5OTEgOC41NzIzMyA2LjQ3ODg1IDguNzc5OSA2LjE1OTMxIDguNzc5OUg1LjgyMjE0QzUuNDIzMzcgOC43Nzk5IDUuMTAwMSA4LjQ1NjYzIDUuMTAwMSA4LjA1Nzg2TDUuMTAwMSA3LjcxODg2QzUuMTAwMSA3LjMyMDA5IDUuNDIzMzcgNi45OTY4MyA1LjgyMjE0IDYuOTk2ODNINi4xNTkzMUM2LjUzODE1IDYuOTk2ODMgNi44NDg4NCA3LjI4ODU4IDYuODc4OTYgNy42NTk2Nkw3LjQ5MDg3IDcuNjU5NjZDNy41Mzk3NiA3LjU3MjkzIDcuNjE5MzMgNy41MDU4MSA3LjcxNDg1IDcuNDczMDJMNy41ODQyMSA2Ljk1NDk1SDcuMzg4MTNDNi45ODkzNiA2Ljk1NDk1IDYuNjY2MDkgNi42MzE2OCA2LjY2NjA5IDYuMjMyOTFWNS44OTM5MUM2LjY2NjA5IDUuNDk1MTQgNi45ODkzNiA1LjE3MTg4IDcuMzg4MTMgNS4xNzE4OEg3LjcyNTMxWk03LjgyMjM0IDUuODkzOTFDNy44MjIzNCA1Ljg0MDMyIDcuNzc4OSA1Ljc5Njg4IDcuNzI1MzEgNS43OTY4OEw3LjM4ODEzIDUuNzk2ODdDNy4zMzQ1NCA1Ljc5Njg3IDcuMjkxMDkgNS44NDAzMiA3LjI5MTA5IDUuODkzOTFWNi4yMzI5MUM3LjI5MTA5IDYuMjg2NSA3LjMzNDU0IDYuMzI5OTUgNy4zODgxMyA2LjMyOTk1SDcuNzI1MzFDNy43Nzg5IDYuMzI5OTUgNy44MjIzNCA2LjI4NjUgNy44MjIzNCA2LjIzMjkxVjUuODkzOTFaTTEwLjMxMjkgNi45NjgxM0MxMC4zMTI5IDYuOTE0NTQgMTAuMjY5NCA2Ljg3MTA5IDEwLjIxNTggNi44NzEwOUg5Ljg3ODY3QzkuODI1MDggNi44NzEwOSA5Ljc4MTYzIDYuOTE0NTQgOS43ODE2MyA2Ljk2ODEzVjcuMzA3MTNDOS43ODE2MyA3LjM2MDcyIDkuODI1MDggNy40MDQxNyA5Ljg3ODY3IDcuNDA0MTdIMTAuMjE1OEMxMC4yNjk0IDcuNDA0MTcgMTAuMzEyOSA3LjM2MDcyIDEwLjMxMjkgNy4zMDcxM1Y2Ljk2ODEzWk0xMC4yMTg0IDkuMDAzMDRDMTAuMjE4NCA4Ljk0OTQ1IDEwLjE3NSA4LjkwNjAxIDEwLjEyMTQgOC45MDYwMUg5LjY3MDM2QzkuNjE2NzcgOC45MDYwMSA5LjU3MzMzIDguOTQ5NDUgOS41NzMzMyA5LjAwMzA0VjkuNDU2MDlDOS41NzMzMyA5LjUwOTY4IDkuNjE2NzcgOS41NTMxMyA5LjY3MDM2IDkuNTUzMTNIMTAuMTIxNEMxMC4xNzUgOS41NTMxMyAxMC4yMTg0IDkuNTA5NjggMTAuMjE4NCA5LjQ1NjA5VjkuMDAzMDRaTTYuMTU5MzEgNy42MjE4M0M2LjIxMjkgNy42MjE4MyA2LjI1NjM1IDcuNjY1MjcgNi4yNTYzNSA3LjcxODg2VjguMDU3ODZDNi4yNTYzNSA4LjExMTQ2IDYuMjEyOSA4LjE1NDkgNi4xNTkzMSA4LjE1NDlINS44MjIxNEM1Ljc2ODU0IDguMTU0OSA1LjcyNTEgOC4xMTE0NiA1LjcyNTEgOC4wNTc4NlY3LjcxODg2QzUuNzI1MSA3LjY2NTI3IDUuNzY4NTQgNy42MjE4MyA1LjgyMjE0IDcuNjIxODNINi4xNTkzMVpNNi44MjYxMSAxMC4wMjIzQzYuODI2MTEgOS45Njg3NCA2Ljc4MjY3IDkuOTI1MjkgNi43MjkwNyA5LjkyNTI5SDYuMzkxOUM2LjMzODMxIDkuOTI1MjkgNi4yOTQ4NiA5Ljk2ODc0IDYuMjk0ODYgMTAuMDIyM1YxMC4zNjEzQzYuMjk0ODYgMTAuNDE0OSA2LjMzODMxIDEwLjQ1ODQgNi4zOTE5IDEwLjQ1ODRINi43MjkwN0M2Ljc4MjY3IDEwLjQ1ODQgNi44MjYxMSAxMC40MTQ5IDYuODI2MTEgMTAuMzYxM1YxMC4wMjIzWiIgY2xpcC1ydWxlPSJldmVub2RkIiBmaWxsLXJ1bGU9ImV2ZW5vZGQiLz4mI3hhOzxwYXRoIGZpbGw9InVybCgjcGFpbnQzX3JhZGlhbF8zNTE0XzQwMjY4KSIgZD0iTTQuMjU4NzkgMTAuNTIyN0M0LjUwMDQxIDEwLjUyMjcgNC42OTYyOSAxMC43MTg2IDQuNjk2MjkgMTAuOTYwMlYxMS40NjAyQzQuNjk2MjkgMTEuNzcwOSA0Ljk0ODEzIDEyLjAyMjcgNS4yNTg3OSAxMi4wMjI3SDEwLjc1ODhDMTEuMDY5NCAxMi4wMjI3IDExLjMyMTMgMTEuNzcwOSAxMS4zMjEzIDExLjQ2MDJWMTAuOTYwMkMxMS4zMjEzIDEwLjcxODYgMTEuNTE3MiAxMC41MjI3IDExLjc1ODggMTAuNTIyN0MxMi4wMDA0IDEwLjUyMjcgMTIuMTk2MyAxMC43MTg2IDEyLjE5NjMgMTAuOTYwMlYxMS40NjAyQzEyLjE5NjMgMTIuMjU0MSAxMS41NTI3IDEyLjg5NzcgMTAuNzU4OCAxMi44OTc3SDUuMjU4NzlDNC40NjQ4OCAxMi44OTc3IDMuODIxMjkgMTIuMjU0MSAzLjgyMTI5IDExLjQ2MDJWMTAuOTYwMkMzLjgyMTI5IDEwLjcxODYgNC4wMTcxNiAxMC41MjI3IDQuMjU4NzkgMTAuNTIyN1pNMTAuNTIzNCAxMS42Mzc5QzEwLjczMDUgMTEuNjM3OSAxMC44OTg0IDExLjQ3IDEwLjg5ODQgMTEuMjYyOUMxMC44OTg0IDExLjA1NTggMTAuNzMwNSAxMC44ODc5IDEwLjUyMzQgMTAuODg3OUMxMC4zMTYzIDEwLjg4NzkgMTAuMTQ4NCAxMS4wNTU4IDEwLjE0ODQgMTEuMjYyOUMxMC4xNDg0IDExLjQ3IDEwLjMxNjMgMTEuNjM3OSAxMC41MjM0IDExLjYzNzlaTTkuNzQ5NzQgMTEuMjYyOUM5Ljc0OTc0IDExLjQ3IDkuNTgxODUgMTEuNjM3OSA5LjM3NDc0IDExLjYzNzlDOS4xNjc2MyAxMS42Mzc5IDguOTk5NzQgMTEuNDcgOC45OTk3NCAxMS4yNjI5QzguOTk5NzQgMTEuMDU1OCA5LjE2NzYzIDEwLjg4NzkgOS4zNzQ3NCAxMC44ODc5QzkuNTgxODUgMTAuODg3OSA5Ljc0OTc0IDExLjA1NTggOS43NDk3NCAxMS4yNjI5WiIgY2xpcC1ydWxlPSJldmVub2RkIiBmaWxsLXJ1bGU9ImV2ZW5vZGQiLz4mI3hhOzwvZz4mI3hhOzxkZWZzPiYjeGE7PGxpbmVhckdyYWRpZW50IGdyYWRpZW50VW5pdHM9InVzZXJTcGFjZU9uVXNlIiB5Mj0iMTQuNzQ1NiIgeDI9IjEzLjY4NjkiIHkxPSIyLjI2ODciIHgxPSIxLjQ0OTk1IiBpZD0icGFpbnQwX2xpbmVhcl8zNTE0XzQwMjY4Ij4mI3hhOzxzdG9wIHN0b3AtY29sb3I9IndoaXRlIi8+JiN4YTs8c3RvcCBzdG9wLWNvbG9yPSIjRUFFQ0VFIiBvZmZzZXQ9IjEiLz4mI3hhOzwvbGluZWFyR3JhZGllbnQ+JiN4YTs8bGluZWFyR3JhZGllbnQgZ3JhZGllbnRVbml0cz0idXNlclNwYWNlT25Vc2UiIHkyPSIxMC42MzQ0IiB4Mj0iOS4zMTQ0MSIgeTE9IjMuOTgwNTQiIHgxPSI0LjQ5ODA3IiBpZD0icGFpbnQxX2xpbmVhcl8zNTE0XzQwMjY4Ij4mI3hhOzxzdG9wIHN0b3AtY29sb3I9IiMwMTk1RkYiLz4mI3hhOzxzdG9wIHN0b3AtY29sb3I9IiMxMTQ3RTkiIG9mZnNldD0iMC45OTEwMjgiLz4mI3hhOzwvbGluZWFyR3JhZGllbnQ+JiN4YTs8cmFkaWFsR3JhZGllbnQgZ3JhZGllbnRUcmFuc2Zvcm09InRyYW5zbGF0ZSg2LjAwNDA3IDYuMDYxMTcpIHJvdGF0ZSg0NS4zNTk0KSBzY2FsZSg1Ljc4NzI0IDUuMjczMjgpIiBncmFkaWVudFVuaXRzPSJ1c2VyU3BhY2VPblVzZSIgcj0iMSIgY3k9IjAiIGN4PSIwIiBpZD0icGFpbnQyX3JhZGlhbF8zNTE0XzQwMjY4Ij4mI3hhOzxzdG9wIHN0b3AtY29sb3I9IiMxMzQ4RkYiLz4mI3hhOzxzdG9wIHN0b3AtY29sb3I9IiMwNjIzOEQiIG9mZnNldD0iMSIvPiYjeGE7PC9yYWRpYWxHcmFkaWVudD4mI3hhOzxyYWRpYWxHcmFkaWVudCBncmFkaWVudFRyYW5zZm9ybT0idHJhbnNsYXRlKDUuMTE4MTQgMTAuODgpIHJvdGF0ZSgxNS44MzI0KSBzY2FsZSg2LjA2Mzg0IDIuOTAwNzMpIiBncmFkaWVudFVuaXRzPSJ1c2VyU3BhY2VPblVzZSIgcj0iMSIgY3k9IjAiIGN4PSIwIiBpZD0icGFpbnQzX3JhZGlhbF8zNTE0XzQwMjY4Ij4mI3hhOzxzdG9wIHN0b3AtY29sb3I9IiMxMzQ4RkYiLz4mI3hhOzxzdG9wIHN0b3AtY29sb3I9IiMwNjIzOEQiIG9mZnNldD0iMSIvPiYjeGE7PC9yYWRpYWxHcmFkaWVudD4mI3hhOzxjbGlwUGF0aCBpZD0iY2xpcDBfMzUxNF80MDI2OCI+JiN4YTs8cmVjdCB0cmFuc2Zvcm09InRyYW5zbGF0ZSgyLjk5OTAyIDIuODk3NzEpIiBmaWxsPSJ3aGl0ZSIgaGVpZ2h0PSIxMCIgd2lkdGg9IjEwIi8+JiN4YTs8L2NsaXBQYXRoPiYjeGE7PC9kZWZzPiYjeGE7PC9zdmc+;points=[[0,0,0,0,0],[0,0.25,0,0,0],[0,0.5,0,0,0],[0,0.75,0,0,0],[0.25,0,0,0,0],[0.5,0,0,0,0],[0.75,0,0,0,0],[1,0,0,0,0],[1,0.25,0,0,0],[1,0.5,0,0,0],[1,0.75,0,0,0]];container=0;fontStyle=0;fontSize=12;fontColor=#1D2D3E;" vertex="1" parent="1">
          <mxGeometry x="-290" y="180" width="32" height="32" as="geometry" />
        </mxCell>
        <mxCell id="iBaNymkaQX2o0GxHc3xv-1" value="" style="shape=image;verticalLabelPosition=bottom;verticalAlign=top;imageAspect=0;aspect=fixed;image=data:image/svg+xml,PHN2ZyB4bWxucz0iaHR0cDovL3d3dy53My5vcmcvMjAwMC9zdmciIGZpbGw9Im5vbmUiIHZpZXdCb3g9IjAgMCAxNyAxNyIgaGVpZ2h0PSIxNyIgd2lkdGg9IjE3Ij4mI3hhOzxwYXRoIGZpbGw9InVybCgjcGFpbnQwX2xpbmVhcl8yXzI4Nzk4KSIgZD0iTTAuMjEzODY3IDguNTUyNzNDMC4yMTM4NjcgNy40Njk0IDAuNDIyMjAxIDYuNDU4OTggMC44Mzg4NjcgNS41MjE0OEMxLjI1NTUzIDQuNTYzMTUgMS44MTgwMyAzLjcyOTgyIDIuNTI2MzcgMy4wMjE0OEMzLjIzNDcgMi4zMTMxNSA0LjA2ODAzIDEuNzUwNjUgNS4wMjYzNyAxLjMzMzk4QzUuOTg0NyAwLjkxNzMxOCA3LjAwNTUzIDAuNzA4OTg0IDguMDg4ODcgMC43MDg5ODRDOS4xNzIyIDAuNzA4OTg0IDEwLjE4MjYgMC45MTczMTggMTEuMTIwMSAxLjMzMzk4QzEyLjA3ODUgMS43NTA2NSAxMi45MTE4IDIuMzEzMTUgMTMuNjIwMSAzLjAyMTQ4QzE0LjMyODUgMy43Mjk4MiAxNC44OTEgNC41NjMxNSAxNS4zMDc2IDUuNTIxNDhDMTUuNzI0MyA2LjQ1ODk4IDE1LjkzMjYgNy40Njk0IDE1LjkzMjYgOC41NTI3M0MxNS45MzI2IDkuNjM2MDcgMTUuNzI0MyAxMC42NTY5IDE1LjMwNzYgMTEuNjE1MkMxNC44OTEgMTIuNTczNiAxNC4zMjg1IDEzLjQwNjkgMTMuNjIwMSAxNC4xMTUyQzEyLjkxMTggMTQuODIzNiAxMi4wNzg1IDE1LjM4NjEgMTEuMTIwMSAxNS44MDI3QzEwLjE4MjYgMTYuMjE5NCA5LjE3MjIgMTYuNDI3NyA4LjA4ODg3IDE2LjQyNzdDNy4wMDU1MyAxNi40Mjc3IDUuOTg0NyAxNi4yMTk0IDUuMDI2MzcgMTUuODAyN0M0LjA2ODAzIDE1LjM4NjEgMy4yMzQ3IDE0LjgyMzYgMi41MjYzNyAxNC4xMTUyQzEuODE4MDMgMTMuNDA2OSAxLjI1NTUzIDEyLjU3MzYgMC44Mzg4NjcgMTEuNjE1MkMwLjQyMjIwMSAxMC42NTY5IDAuMjEzODY3IDkuNjM2MDcgMC4yMTM4NjcgOC41NTI3M1pNOS42NTEzNyAxMC45Mjc3QzEwLjMxOCAxMC45Mjc3IDEwLjkzMjYgMTEuMDg0IDExLjQ5NTEgMTEuMzk2NUMxMi4wNTc2IDExLjY4ODIgMTIuNTE2IDEyLjA5NDQgMTIuODcwMSAxMi42MTUyQzEzLjM0OTMgMTIuMDczNiAxMy43MTM5IDExLjQ1OSAxMy45NjM5IDEwLjc3MTVDMTQuMjM0NyAxMC4wODQgMTQuMzcwMSA5LjM0NDQgMTQuMzcwMSA4LjU1MjczQzE0LjM3MDEgNy42Nzc3MyAxNC4yMDM1IDYuODY1MjMgMTMuODcwMSA2LjExNTIzQzEzLjUzNjggNS4zNDQ0IDEzLjA4ODkgNC42Nzc3MyAxMi41MjY0IDQuMTE1MjNDMTEuOTYzOSAzLjU1MjczIDExLjI5NzIgMy4xMDQ4MiAxMC41MjY0IDIuNzcxNDhDOS43NzYzNyAyLjQzODE1IDguOTYzODcgMi4yNzE0OCA4LjA4ODg3IDIuMjcxNDhDNy4yMTM4NyAyLjI3MTQ4IDYuMzkwOTUgMi40MzgxNSA1LjYyMDEyIDIuNzcxNDhDNC44NzAxMiAzLjEwNDgyIDQuMjAzNDUgMy41NTI3MyAzLjYyMDEyIDQuMTE1MjNDMy4wNTc2MiA0LjY3NzczIDIuNjA5NyA1LjM0NDQgMi4yNzYzNyA2LjExNTIzQzEuOTQzMDMgNi44NjUyMyAxLjc3NjM3IDcuNjc3NzMgMS43NzYzNyA4LjU1MjczQzEuNzc2MzcgOS4zNDQ0IDEuOTAxMzcgMTAuMDg0IDIuMTUxMzcgMTAuNzcxNUMyLjQyMjIgMTEuNDU5IDIuNzk3MiAxMi4wNzM2IDMuMjc2MzcgMTIuNjE1MkMzLjYzMDUzIDEyLjA5NDQgNC4wODg4NyAxMS42ODgyIDQuNjUxMzcgMTEuMzk2NUM1LjIxMzg3IDExLjA4NCA1LjgyODQ1IDEwLjkyNzcgNi40OTUxMiAxMC45Mjc3SDkuNjUxMzdaTTExLjIxMzkgNi45OTAyM0MxMS4yMTM5IDcuNDI3NzMgMTEuMTMwNSA3Ljg0NDQgMTAuOTYzOSA4LjI0MDIzQzEwLjc5NzIgOC42MTUyMyAxMC41NjggOC45NDg1NyAxMC4yNzY0IDkuMjQwMjNDMTAuMDA1NSA5LjUxMTA3IDkuNjgyNjIgOS43Mjk4MiA5LjMwNzYyIDkuODk2NDhDOC45MzI2MiAxMC4wNjMyIDguNTI2MzcgMTAuMTQ2NSA4LjA4ODg3IDEwLjE0NjVDNy42NTEzNyAxMC4xNDY1IDcuMjM0NyAxMC4wNjMyIDYuODM4ODcgOS44OTY0OEM2LjQ2Mzg3IDkuNzI5ODIgNi4xMzA1MyA5LjUxMTA3IDUuODM4ODcgOS4yNDAyM0M1LjU2ODAzIDguOTQ4NTcgNS4zNDkyOCA4LjYxNTIzIDUuMTgyNjIgOC4yNDAyM0M1LjAxNTk1IDcuODQ0NCA0LjkzMjYyIDcuNDI3NzMgNC45MzI2MiA2Ljk5MDIzQzQuOTMyNjIgNi41NTI3MyA1LjAxNTk1IDYuMTQ2NDggNS4xODI2MiA1Ljc3MTQ4QzUuMzQ5MjggNS4zOTY0OCA1LjU2ODAzIDUuMDYzMTUgNS44Mzg4NyA0Ljc3MTQ4QzYuMTMwNTMgNC40Nzk4MiA2LjQ2Mzg3IDQuMjUwNjUgNi44Mzg4NyA0LjA4Mzk4QzcuMjM0NyAzLjkxNzMyIDcuNjUxMzcgMy44MzM5OCA4LjA4ODg3IDMuODMzOThDOC41MjYzNyAzLjgzMzk4IDguOTMyNjIgMy45MTczMiA5LjMwNzYyIDQuMDgzOThDOS42ODI2MiA0LjI1MDY1IDEwLjAwNTUgNC40Nzk4MiAxMC4yNzY0IDQuNzcxNDhDMTAuNTY4IDUuMDYzMTUgMTAuNzk3MiA1LjM5NjQ4IDEwLjk2MzkgNS43NzE0OEMxMS4xMzA1IDYuMTQ2NDggMTEuMjEzOSA2LjU1MjczIDExLjIxMzkgNi45OTAyM1pNOS42NTEzNyA2Ljk5MDIzQzkuNjUxMzcgNi41NTI3MyA5LjQ5NTEyIDYuMTg4MTUgOS4xODI2MiA1Ljg5NjQ4QzguODcwMTIgNS41ODM5OCA4LjUwNTUzIDUuNDI3NzMgOC4wODg4NyA1LjQyNzczQzcuNjUxMzcgNS40Mjc3MyA3LjI3NjM3IDUuNTgzOTggNi45NjM4NyA1Ljg5NjQ4QzYuNjUxMzcgNi4xODgxNSA2LjQ5NTEyIDYuNTUyNzMgNi40OTUxMiA2Ljk5MDIzQzYuNDk1MTIgNy40Mjc3MyA2LjY1MTM3IDcuODAyNzMgNi45NjM4NyA4LjExNTIzQzcuMjc2MzcgOC40MDY5IDcuNjUxMzcgOC41NTI3MyA4LjA4ODg3IDguNTUyNzNDOC41MDU1MyA4LjU1MjczIDguODcwMTIgOC40MDY5IDkuMTgyNjIgOC4xMTUyM0M5LjQ5NTEyIDcuODAyNzMgOS42NTEzNyA3LjQyNzczIDkuNjUxMzcgNi45OTAyM1pNNC40NjM4NyAxMy43MDlDNC45NjM4NyAxNC4wNjMyIDUuNTE1OTUgMTQuMzQ0NCA2LjEyMDEyIDE0LjU1MjdDNi43NDUxMiAxNC43NjExIDcuNDAxMzcgMTQuODY1MiA4LjA4ODg3IDE0Ljg2NTJDOC43NTU1MyAxNC44NjUyIDkuMzkwOTUgMTQuNzYxMSA5Ljk5NTEyIDE0LjU1MjdDMTAuNjIwMSAxNC4zNDQ0IDExLjE4MjYgMTQuMDYzMiAxMS42ODI2IDEzLjcwOUMxMS40NzQzIDEzLjMzNCAxMS4xODI2IDEzLjA0MjMgMTAuODA3NiAxMi44MzRDMTAuNDUzNSAxMi42MDQ4IDEwLjA2OCAxMi40OTAyIDkuNjUxMzcgMTIuNDkwMkg2LjQ5NTEyQzYuMDc4NDUgMTIuNDkwMiA1LjY4MjYyIDEyLjYwNDggNS4zMDc2MiAxMi44MzRDNC45NTM0NSAxMy4wNDIzIDQuNjcyMiAxMy4zMzQgNC40NjM4NyAxMy43MDlaIi8+JiN4YTs8ZGVmcz4mI3hhOzxsaW5lYXJHcmFkaWVudCBncmFkaWVudFVuaXRzPSJ1c2VyU3BhY2VPblVzZSIgeTI9IjE2LjQyNzciIHgyPSI4LjA3MzI0IiB5MT0iMC43MDg5ODQiIHgxPSI4LjA3MzI0IiBpZD0icGFpbnQwX2xpbmVhcl8yXzI4Nzk4Ij4mI3hhOzxzdG9wIHN0b3AtY29sb3I9IiM1QjczOEIiLz4mI3hhOzxzdG9wIHN0b3AtY29sb3I9IiMyMjM1NDgiIG9mZnNldD0iMSIvPiYjeGE7PC9saW5lYXJHcmFkaWVudD4mI3hhOzwvZGVmcz4mI3hhOzwvc3ZnPg==;strokeWidth=1.5;" vertex="1" parent="1">
          <mxGeometry x="-140" y="129.9999999999999" width="62.34" height="62.34" as="geometry" />
        </mxCell>
        <mxCell id="i0-r0BhkWRjA8PmNq9u2-15" value="SAP Integration Suite" style="shape=image;verticalLabelPosition=bottom;verticalAlign=top;aspect=fixed;imageAspect=0;image=data:image/svg+xml,PHN2ZyB4bWxucz0iaHR0cDovL3d3dy53My5vcmcvMjAwMC9zdmciIGZpbGw9Im5vbmUiIHZpZXdCb3g9IjAgMCAxNiAxNiIgaGVpZ2h0PSIxNiIgd2lkdGg9IjE2Ij4mI3hhOzxjaXJjbGUgc3Ryb2tlLXdpZHRoPSIwLjI4NTcwOCIgc3Ryb2tlPSIjRDVEQUREIiBmaWxsPSJ1cmwoI3BhaW50MF9saW5lYXJfMzUxNF80MDI2OCkiIHI9IjcuODU2OTYiIGN5PSI3Ljk5NzYyIiBjeD0iNy45OTg4NCIvPiYjeGE7PGcgY2xpcC1wYXRoPSJ1cmwoI2NsaXAwXzM1MTRfNDAyNjgpIj4mI3hhOzxwYXRoIGZpbGw9InVybCgjcGFpbnQxX2xpbmVhcl8zNTE0XzQwMjY4KSIgZD0iTTcuOTQ5NTggMi44OTc3MUM2LjQyNzE1IDIuODk3NzEgNS4yNzc5NSAzLjk2MDAxIDQuOTEzNDkgNS4yMDYwOEM0LjUxMDcgNS4yOTI5NiA0LjE0MjEzIDUuNDc0NDUgMy44MzI3NyA1Ljc0NTc3QzMuMjc3NDcgNi4yMzI3OSAyLjk5OTAyIDYuOTM0MTMgMi45OTkwMiA3LjY1MzAxQzIuOTk5MDIgOC4zMDY1NCAzLjIwOTcgOC45NjQzNCAzLjcxNDYyIDkuNDU4MDNDNC4xMSA5Ljg0NDYzIDQuNjE1OTMgMTAuMDYyNSA1LjE2OTczIDEwLjEzODZWMTAuMDI0MkM1LjE2OTczIDkuNzIwMzUgNS4yODA2NCA5LjQ0MjM4IDUuNDY0MiA5LjIyODU5QzQuOTYzODYgOS4wNzU2MSA0LjU5OTk2IDguNjEwMTkgNC41OTk5NiA4LjA1OTc3VjcuNzIwNzdDNC41OTk5NiA3LjA0NTg1IDUuMTQ3MDkgNi40OTg3MyA1LjgyMiA2LjQ5ODczSDYuMTU5MTdDNi4xNzEwNyA2LjQ5ODczIDYuMTgyOTMgNi40OTg5IDYuMTk0NzUgNi40OTkyNEM2LjE3NTk3IDYuNDE0MTEgNi4xNjYwOCA2LjMyNTY0IDYuMTY2MDggNi4yMzQ4NlY1Ljg5NTg3QzYuMTY2MDggNS4yMjA5NSA2LjcxMzIgNC42NzM4MyA3LjM4ODExIDQuNjczODNINy43MjUyOUM4LjQwMDIgNC42NzM4MyA4Ljk0NzMzIDUuMjIwOTUgOC45NDczMyA1Ljg5NTg3VjYuMTc4NzdDOS4xNzE0OCA1LjkxNTIxIDkuNTA1NTMgNS43NDgwMSA5Ljg3ODYzIDUuNzQ4MDFIMTAuMjE1OEMxMC44OTA3IDUuNzQ4MDEgMTEuNDM3OCA2LjI5NTEzIDExLjQzNzggNi45NzAwNFY3LjMwOTA0QzExLjQzNzggNy42NjM0OCAxMS4yODY5IDcuOTgyNjggMTEuMDQ1OSA4LjIwNTg5QzExLjIzMTIgOC40MjAxMyAxMS4zNDMzIDguNjk5NDUgMTEuMzQzMyA5LjAwNDk1VjkuNDU4QzExLjM0MzMgOS42MjU1NiAxMS4zMDk2IDkuNzg1MjQgMTEuMjQ4NiA5LjkzMDYzQzEyLjIzNDEgOS41MTg2OSAxMi45OTkgOC41OTgwOSAxMi45OTkgNy4yODcyQzEyLjk5OSA1LjgyNDczIDExLjk3ODYgNC42OTQ1NyAxMC43MTMxIDQuNDQzNDlDMTAuMTQzOCAzLjUxNDMgOS4xODIzIDIuODk3NzEgNy45NDk1OCAyLjg5NzcxWiIvPiYjeGE7PHBhdGggZmlsbD0idXJsKCNwYWludDJfcmFkaWFsXzM1MTRfNDAyNjgpIiBkPSJNNy43MjUzMSA1LjE3MTg4QzguMTI0MDggNS4xNzE4OCA4LjQ0NzM0IDUuNDk1MTQgOC40NDczNCA1Ljg5MzkxVjYuMjMyOTFDOC40NDczNCA2LjQ1NjIxIDguMzQ1OTggNi42NTU4NCA4LjE4Njc1IDYuNzg4MjhMOC4zNTM4NCA3LjQ1MDkzSDguMzc3OTRDOC40NDc3IDcuNDUwOTMgOC41MTMzOSA3LjQ2ODM3IDguNTcwODggNy40OTkxM0w5LjE1NjYzIDcuMjAxOTVWNi45NjgxM0M5LjE1NjYzIDYuNTY5MzYgOS40Nzk5IDYuMjQ2MDkgOS44Nzg2NyA2LjI0NjA5SDEwLjIxNThDMTAuNjE0NiA2LjI0NjA5IDEwLjkzNzkgNi41NjkzNiAxMC45Mzc5IDYuOTY4MTNWNy4zMDcxM0MxMC45Mzc5IDcuNzA1OSAxMC42MTQ2IDguMDI5MTcgMTAuMjE1OCA4LjAyOTE3SDkuODc4NjdDOS42NzE4MyA4LjAyOTE3IDkuNDg1MyA3Ljk0MjE5IDkuMzUzNjYgNy44MDI4Mkw4Ljc4NzQ4IDguMDkwMDhWOC4xNjE2Nkw4Ljc4OTM3IDguMTU4NzhMOS4yMTg0MyA4LjQzOTlDOS4zNDIxNSA4LjM0MDQ5IDkuNDk5MzEgOC4yODEwMSA5LjY3MDM2IDguMjgxMDFIMTAuMTIxNEMxMC41MjAyIDguMjgxMDEgMTAuODQzNCA4LjYwNDI3IDEwLjg0MzQgOS4wMDMwNFY5LjQ1NjA5QzEwLjg0MzQgOS44NTQ4NiAxMC41MjAyIDEwLjE3ODEgMTAuMTIxNCAxMC4xNzgxSDkuNjcwMzZDOS4yNzE1OSAxMC4xNzgxIDguOTQ4MzMgOS44NTQ4NiA4Ljk0ODMzIDkuNDU2MDlWOS4wMTAxM0w4LjU2MTUzIDguNzU2N0M4LjUwNjMxIDguNzg0NDQgOC40NDM5NSA4LjgwMDA2IDguMzc3OTQgOC44MDAwNkg4LjA0NDM1TDcuMzc0ODYgOS42OTkwNEM3LjQyMzY1IDkuNzk2MyA3LjQ1MTExIDkuOTA2MTEgNy40NTExMSAxMC4wMjIzVjEwLjM2MTNDNy40NTExMSAxMC43NjAxIDcuMTI3ODQgMTEuMDgzNCA2LjcyOTA3IDExLjA4MzRINi4zOTE5QzUuOTkzMTMgMTEuMDgzNCA1LjY2OTg2IDEwLjc2MDEgNS42Njk4NiAxMC4zNjEzTDUuNjY5ODYgMTAuMDIyM0M1LjY2OTg2IDkuNjIzNTYgNS45OTMxMyA5LjMwMDI5IDYuMzkxOSA5LjMwMDI5SDYuNzI5MDdDNi43ODEwNyA5LjMwMDI5IDYuODMxNzkgOS4zMDU3OSA2Ljg4MDY3IDkuMzE2MjNMNy40NjM4NiA4LjUzMzEzQzcuNDQ3MzYgOC40ODg3MiA3LjQzODM1IDguNDQwNjcgNy40MzgzNSA4LjM5MDUyVjguMjg0NjZMNi44NDUwMSA4LjI4NDY2QzYuNzQ5OTEgOC41NzIzMyA2LjQ3ODg1IDguNzc5OSA2LjE1OTMxIDguNzc5OUg1LjgyMjE0QzUuNDIzMzcgOC43Nzk5IDUuMTAwMSA4LjQ1NjYzIDUuMTAwMSA4LjA1Nzg2TDUuMTAwMSA3LjcxODg2QzUuMTAwMSA3LjMyMDA5IDUuNDIzMzcgNi45OTY4MyA1LjgyMjE0IDYuOTk2ODNINi4xNTkzMUM2LjUzODE1IDYuOTk2ODMgNi44NDg4NCA3LjI4ODU4IDYuODc4OTYgNy42NTk2Nkw3LjQ5MDg3IDcuNjU5NjZDNy41Mzk3NiA3LjU3MjkzIDcuNjE5MzMgNy41MDU4MSA3LjcxNDg1IDcuNDczMDJMNy41ODQyMSA2Ljk1NDk1SDcuMzg4MTNDNi45ODkzNiA2Ljk1NDk1IDYuNjY2MDkgNi42MzE2OCA2LjY2NjA5IDYuMjMyOTFWNS44OTM5MUM2LjY2NjA5IDUuNDk1MTQgNi45ODkzNiA1LjE3MTg4IDcuMzg4MTMgNS4xNzE4OEg3LjcyNTMxWk03LjgyMjM0IDUuODkzOTFDNy44MjIzNCA1Ljg0MDMyIDcuNzc4OSA1Ljc5Njg4IDcuNzI1MzEgNS43OTY4OEw3LjM4ODEzIDUuNzk2ODdDNy4zMzQ1NCA1Ljc5Njg3IDcuMjkxMDkgNS44NDAzMiA3LjI5MTA5IDUuODkzOTFWNi4yMzI5MUM3LjI5MTA5IDYuMjg2NSA3LjMzNDU0IDYuMzI5OTUgNy4zODgxMyA2LjMyOTk1SDcuNzI1MzFDNy43Nzg5IDYuMzI5OTUgNy44MjIzNCA2LjI4NjUgNy44MjIzNCA2LjIzMjkxVjUuODkzOTFaTTEwLjMxMjkgNi45NjgxM0MxMC4zMTI5IDYuOTE0NTQgMTAuMjY5NCA2Ljg3MTA5IDEwLjIxNTggNi44NzEwOUg5Ljg3ODY3QzkuODI1MDggNi44NzEwOSA5Ljc4MTYzIDYuOTE0NTQgOS43ODE2MyA2Ljk2ODEzVjcuMzA3MTNDOS43ODE2MyA3LjM2MDcyIDkuODI1MDggNy40MDQxNyA5Ljg3ODY3IDcuNDA0MTdIMTAuMjE1OEMxMC4yNjk0IDcuNDA0MTcgMTAuMzEyOSA3LjM2MDcyIDEwLjMxMjkgNy4zMDcxM1Y2Ljk2ODEzWk0xMC4yMTg0IDkuMDAzMDRDMTAuMjE4NCA4Ljk0OTQ1IDEwLjE3NSA4LjkwNjAxIDEwLjEyMTQgOC45MDYwMUg5LjY3MDM2QzkuNjE2NzcgOC45MDYwMSA5LjU3MzMzIDguOTQ5NDUgOS41NzMzMyA5LjAwMzA0VjkuNDU2MDlDOS41NzMzMyA5LjUwOTY4IDkuNjE2NzcgOS41NTMxMyA5LjY3MDM2IDkuNTUzMTNIMTAuMTIxNEMxMC4xNzUgOS41NTMxMyAxMC4yMTg0IDkuNTA5NjggMTAuMjE4NCA5LjQ1NjA5VjkuMDAzMDRaTTYuMTU5MzEgNy42MjE4M0M2LjIxMjkgNy42MjE4MyA2LjI1NjM1IDcuNjY1MjcgNi4yNTYzNSA3LjcxODg2VjguMDU3ODZDNi4yNTYzNSA4LjExMTQ2IDYuMjEyOSA4LjE1NDkgNi4xNTkzMSA4LjE1NDlINS44MjIxNEM1Ljc2ODU0IDguMTU0OSA1LjcyNTEgOC4xMTE0NiA1LjcyNTEgOC4wNTc4NlY3LjcxODg2QzUuNzI1MSA3LjY2NTI3IDUuNzY4NTQgNy42MjE4MyA1LjgyMjE0IDcuNjIxODNINi4xNTkzMVpNNi44MjYxMSAxMC4wMjIzQzYuODI2MTEgOS45Njg3NCA2Ljc4MjY3IDkuOTI1MjkgNi43MjkwNyA5LjkyNTI5SDYuMzkxOUM2LjMzODMxIDkuOTI1MjkgNi4yOTQ4NiA5Ljk2ODc0IDYuMjk0ODYgMTAuMDIyM1YxMC4zNjEzQzYuMjk0ODYgMTAuNDE0OSA2LjMzODMxIDEwLjQ1ODQgNi4zOTE5IDEwLjQ1ODRINi43MjkwN0M2Ljc4MjY3IDEwLjQ1ODQgNi44MjYxMSAxMC40MTQ5IDYuODI2MTEgMTAuMzYxM1YxMC4wMjIzWiIgY2xpcC1ydWxlPSJldmVub2RkIiBmaWxsLXJ1bGU9ImV2ZW5vZGQiLz4mI3hhOzxwYXRoIGZpbGw9InVybCgjcGFpbnQzX3JhZGlhbF8zNTE0XzQwMjY4KSIgZD0iTTQuMjU4NzkgMTAuNTIyN0M0LjUwMDQxIDEwLjUyMjcgNC42OTYyOSAxMC43MTg2IDQuNjk2MjkgMTAuOTYwMlYxMS40NjAyQzQuNjk2MjkgMTEuNzcwOSA0Ljk0ODEzIDEyLjAyMjcgNS4yNTg3OSAxMi4wMjI3SDEwLjc1ODhDMTEuMDY5NCAxMi4wMjI3IDExLjMyMTMgMTEuNzcwOSAxMS4zMjEzIDExLjQ2MDJWMTAuOTYwMkMxMS4zMjEzIDEwLjcxODYgMTEuNTE3MiAxMC41MjI3IDExLjc1ODggMTAuNTIyN0MxMi4wMDA0IDEwLjUyMjcgMTIuMTk2MyAxMC43MTg2IDEyLjE5NjMgMTAuOTYwMlYxMS40NjAyQzEyLjE5NjMgMTIuMjU0MSAxMS41NTI3IDEyLjg5NzcgMTAuNzU4OCAxMi44OTc3SDUuMjU4NzlDNC40NjQ4OCAxMi44OTc3IDMuODIxMjkgMTIuMjU0MSAzLjgyMTI5IDExLjQ2MDJWMTAuOTYwMkMzLjgyMTI5IDEwLjcxODYgNC4wMTcxNiAxMC41MjI3IDQuMjU4NzkgMTAuNTIyN1pNMTAuNTIzNCAxMS42Mzc5QzEwLjczMDUgMTEuNjM3OSAxMC44OTg0IDExLjQ3IDEwLjg5ODQgMTEuMjYyOUMxMC44OTg0IDExLjA1NTggMTAuNzMwNSAxMC44ODc5IDEwLjUyMzQgMTAuODg3OUMxMC4zMTYzIDEwLjg4NzkgMTAuMTQ4NCAxMS4wNTU4IDEwLjE0ODQgMTEuMjYyOUMxMC4xNDg0IDExLjQ3IDEwLjMxNjMgMTEuNjM3OSAxMC41MjM0IDExLjYzNzlaTTkuNzQ5NzQgMTEuMjYyOUM5Ljc0OTc0IDExLjQ3IDkuNTgxODUgMTEuNjM3OSA5LjM3NDc0IDExLjYzNzlDOS4xNjc2MyAxMS42Mzc5IDguOTk5NzQgMTEuNDcgOC45OTk3NCAxMS4yNjI5QzguOTk5NzQgMTEuMDU1OCA5LjE2NzYzIDEwLjg4NzkgOS4zNzQ3NCAxMC44ODc5QzkuNTgxODUgMTAuODg3OSA5Ljc0OTc0IDExLjA1NTggOS43NDk3NCAxMS4yNjI5WiIgY2xpcC1ydWxlPSJldmVub2RkIiBmaWxsLXJ1bGU9ImV2ZW5vZGQiLz4mI3hhOzwvZz4mI3hhOzxkZWZzPiYjeGE7PGxpbmVhckdyYWRpZW50IGdyYWRpZW50VW5pdHM9InVzZXJTcGFjZU9uVXNlIiB5Mj0iMTQuNzQ1NiIgeDI9IjEzLjY4NjkiIHkxPSIyLjI2ODciIHgxPSIxLjQ0OTk1IiBpZD0icGFpbnQwX2xpbmVhcl8zNTE0XzQwMjY4Ij4mI3hhOzxzdG9wIHN0b3AtY29sb3I9IndoaXRlIi8+JiN4YTs8c3RvcCBzdG9wLWNvbG9yPSIjRUFFQ0VFIiBvZmZzZXQ9IjEiLz4mI3hhOzwvbGluZWFyR3JhZGllbnQ+JiN4YTs8bGluZWFyR3JhZGllbnQgZ3JhZGllbnRVbml0cz0idXNlclNwYWNlT25Vc2UiIHkyPSIxMC42MzQ0IiB4Mj0iOS4zMTQ0MSIgeTE9IjMuOTgwNTQiIHgxPSI0LjQ5ODA3IiBpZD0icGFpbnQxX2xpbmVhcl8zNTE0XzQwMjY4Ij4mI3hhOzxzdG9wIHN0b3AtY29sb3I9IiMwMTk1RkYiLz4mI3hhOzxzdG9wIHN0b3AtY29sb3I9IiMxMTQ3RTkiIG9mZnNldD0iMC45OTEwMjgiLz4mI3hhOzwvbGluZWFyR3JhZGllbnQ+JiN4YTs8cmFkaWFsR3JhZGllbnQgZ3JhZGllbnRUcmFuc2Zvcm09InRyYW5zbGF0ZSg2LjAwNDA3IDYuMDYxMTcpIHJvdGF0ZSg0NS4zNTk0KSBzY2FsZSg1Ljc4NzI0IDUuMjczMjgpIiBncmFkaWVudFVuaXRzPSJ1c2VyU3BhY2VPblVzZSIgcj0iMSIgY3k9IjAiIGN4PSIwIiBpZD0icGFpbnQyX3JhZGlhbF8zNTE0XzQwMjY4Ij4mI3hhOzxzdG9wIHN0b3AtY29sb3I9IiMxMzQ4RkYiLz4mI3hhOzxzdG9wIHN0b3AtY29sb3I9IiMwNjIzOEQiIG9mZnNldD0iMSIvPiYjeGE7PC9yYWRpYWxHcmFkaWVudD4mI3hhOzxyYWRpYWxHcmFkaWVudCBncmFkaWVudFRyYW5zZm9ybT0idHJhbnNsYXRlKDUuMTE4MTQgMTAuODgpIHJvdGF0ZSgxNS44MzI0KSBzY2FsZSg2LjA2Mzg0IDIuOTAwNzMpIiBncmFkaWVudFVuaXRzPSJ1c2VyU3BhY2VPblVzZSIgcj0iMSIgY3k9IjAiIGN4PSIwIiBpZD0icGFpbnQzX3JhZGlhbF8zNTE0XzQwMjY4Ij4mI3hhOzxzdG9wIHN0b3AtY29sb3I9IiMxMzQ4RkYiLz4mI3hhOzxzdG9wIHN0b3AtY29sb3I9IiMwNjIzOEQiIG9mZnNldD0iMSIvPiYjeGE7PC9yYWRpYWxHcmFkaWVudD4mI3hhOzxjbGlwUGF0aCBpZD0iY2xpcDBfMzUxNF80MDI2OCI+JiN4YTs8cmVjdCB0cmFuc2Zvcm09InRyYW5zbGF0ZSgyLjk5OTAyIDIuODk3NzEpIiBmaWxsPSJ3aGl0ZSIgaGVpZ2h0PSIxMCIgd2lkdGg9IjEwIi8+JiN4YTs8L2NsaXBQYXRoPiYjeGE7PC9kZWZzPiYjeGE7PC9zdmc+;points=[[0,0,0,0,0],[0,0.25,0,0,0],[0,0.5,0,0,0],[0,0.75,0,0,0],[0.25,0,0,0,0],[0.5,0,0,0,0],[0.75,0,0,0,0],[1,0,0,0,0],[1,0.25,0,0,0],[1,0.5,0,0,0],[1,0.75,0,0,0]];container=0;fontStyle=0;fontSize=12;fontColor=#1D2D3E;" parent="1" vertex="1">
          <mxGeometry x="-80.00000000000001" y="605.8764705882353" width="54.71058823529412" height="54.71058823529412" as="geometry" />
        </mxCell>
        <mxCell id="i0-r0BhkWRjA8PmNq9u2-60" style="edgeStyle=orthogonalEdgeStyle;rounded=0;orthogonalLoop=1;jettySize=auto;html=1;exitX=1;exitY=0.5;exitDx=0;exitDy=0;exitPerimeter=0;strokeColor=#A3A3A3;strokeWidth=2;endArrow=none;endFill=0;entryX=0;entryY=0.5;entryDx=0;entryDy=0;entryPerimeter=0;" parent="1" source="i0-r0BhkWRjA8PmNq9u2-15" target="i0-r0BhkWRjA8PmNq9u2-51" edge="1">
          <mxGeometry relative="1" as="geometry">
            <mxPoint x="157" y="242" as="sourcePoint" />
            <mxPoint x="271" y="360" as="targetPoint" />
            <Array as="points" />
          </mxGeometry>
        </mxCell>
      </root>
    </mxGraphModel>
  </diagram>
</mxfile>
